<svg xmlns="http://www.w3.org/2000/svg" xmlns:xlink="http://www.w3.org/1999/xlink" width="1920" zoomAndPan="magnify" viewBox="0 0 1440 809.999993" height="1080" preserveAspectRatio="xMidYMid meet" version="1.0"><defs><g/><clipPath id="637d441c99"><path d="M 524.347656 645.363281 L 915.414062 645.363281 L 915.414062 703.566406 L 524.347656 703.566406 Z M 524.347656 645.363281 " clip-rule="nonzero"/></clipPath><clipPath id="a9bf02a272"><path d="M 909.90625 703.355469 L 530.09375 703.355469 C 527.0625 703.355469 524.558594 700.851562 524.558594 697.820312 L 524.558594 651.109375 C 524.558594 648.078125 527.0625 645.574219 530.09375 645.574219 L 909.828125 645.574219 C 912.863281 645.574219 915.363281 648.078125 915.363281 651.109375 L 915.363281 697.742188 C 915.441406 700.851562 912.9375 703.355469 909.90625 703.355469 Z M 909.90625 703.355469 " clip-rule="nonzero"/></clipPath><clipPath id="d53690a1da"><path d="M 522.664062 643.679688 L 917.335938 643.679688 L 917.335938 705.25 L 522.664062 705.25 Z M 522.664062 643.679688 " clip-rule="nonzero"/></clipPath><clipPath id="9d9bc5236a"><path d="M 909.90625 647.242188 C 912.027344 647.242188 913.773438 648.988281 913.773438 651.109375 L 913.773438 697.820312 C 913.773438 699.941406 912.027344 701.6875 909.90625 701.6875 L 530.09375 701.6875 C 527.972656 701.6875 526.226562 699.941406 526.226562 697.820312 L 526.226562 651.109375 C 526.226562 648.988281 527.972656 647.242188 530.09375 647.242188 L 909.90625 647.242188 M 909.90625 643.679688 L 530.09375 643.679688 C 526 643.679688 522.664062 647.015625 522.664062 651.109375 L 522.664062 697.820312 C 522.664062 701.914062 526 705.25 530.09375 705.25 L 909.90625 705.25 C 914 705.25 917.335938 701.914062 917.335938 697.820312 L 917.335938 651.109375 C 917.335938 647.015625 914 643.679688 909.90625 643.679688 Z M 909.90625 643.679688 " clip-rule="nonzero"/></clipPath><clipPath id="8365cade7d"><path d="M 333.144531 100.882812 L 648.894531 100.882812 L 648.894531 424.882812 L 333.144531 424.882812 Z M 333.144531 100.882812 " clip-rule="nonzero"/></clipPath></defs><rect x="-144" width="1728" fill="#ffffff" y="-80.999999" height="971.999992" fill-opacity="1"/><rect x="-144" width="1728" fill="#fbf3e4" y="-80.999999" height="971.999992" fill-opacity="1"/><g fill="#000000" fill-opacity="1"><g transform="translate(473.681708, 423.230625)"><g/></g></g><g fill="#000000" fill-opacity="1"><g transform="translate(505.430701, 423.230625)"><g/></g></g><g fill="#000000" fill-opacity="1"><g transform="translate(537.179694, 423.230625)"><g/></g></g><g fill="#000000" fill-opacity="1"><g transform="translate(568.931034, 423.230625)"><g><path d="M 6.96875 -108.765625 C 6.96875 -119.828125 9.660156 -128.601562 15.046875 -135.09375 C 20.441406 -141.582031 28.671875 -144.828125 39.734375 -144.828125 C 50.796875 -144.828125 59.054688 -141.582031 64.515625 -135.09375 C 69.984375 -128.601562 72.71875 -119.828125 72.71875 -108.765625 L 72.71875 -34.625 C 72.71875 -23.695312 69.984375 -14.953125 64.515625 -8.390625 C 59.054688 -1.835938 50.796875 1.4375 39.734375 1.4375 C 28.671875 1.4375 20.441406 -1.835938 15.046875 -8.390625 C 9.660156 -14.953125 6.96875 -23.695312 6.96875 -34.625 Z M 22.734375 -33.796875 C 22.734375 -27.242188 24.132812 -22.15625 26.9375 -18.53125 C 29.738281 -14.914062 34.003906 -13.109375 39.734375 -13.109375 C 45.609375 -13.109375 49.910156 -14.914062 52.640625 -18.53125 C 55.367188 -22.15625 56.734375 -27.242188 56.734375 -33.796875 L 56.734375 -109.59375 C 56.734375 -116.144531 55.367188 -121.226562 52.640625 -124.84375 C 49.910156 -128.46875 45.609375 -130.28125 39.734375 -130.28125 C 34.003906 -130.28125 29.738281 -128.46875 26.9375 -124.84375 C 24.132812 -121.226562 22.734375 -116.144531 22.734375 -109.59375 Z M 22.734375 -33.796875 "/></g></g></g><g fill="#000000" fill-opacity="1"><g transform="translate(648.610758, 423.230625)"><g><path d="M 40.15625 -143.390625 C 51.488281 -143.390625 59.644531 -140.585938 64.625 -134.984375 C 69.613281 -129.390625 72.109375 -121.265625 72.109375 -110.609375 L 72.109375 -98.9375 C 72.109375 -91.019531 70.671875 -84.601562 67.796875 -79.6875 C 64.929688 -74.769531 60.425781 -71.351562 54.28125 -69.4375 C 60.832031 -67.53125 65.472656 -64.015625 68.203125 -58.890625 C 70.941406 -53.773438 72.3125 -47.320312 72.3125 -39.53125 L 72.3125 -17.203125 C 72.3125 -14.066406 72.445312 -11.03125 72.71875 -8.09375 C 72.988281 -5.15625 73.804688 -2.457031 75.171875 0 L 59 0 C 58.039062 -2.050781 57.351562 -4.269531 56.9375 -6.65625 C 56.53125 -9.050781 56.328125 -12.632812 56.328125 -17.40625 L 56.328125 -39.9375 C 56.328125 -48 54.515625 -53.566406 50.890625 -56.640625 C 47.273438 -59.710938 42.125 -61.25 35.4375 -61.25 L 24.171875 -61.25 L 24.171875 0 L 8.1875 0 L 8.1875 -143.390625 Z M 36.046875 -75.796875 C 42.472656 -75.796875 47.457031 -77.125 51 -79.78125 C 54.550781 -82.445312 56.328125 -87.671875 56.328125 -95.453125 L 56.328125 -109.1875 C 56.328125 -115.738281 55.0625 -120.648438 52.53125 -123.921875 C 50.007812 -127.203125 45.742188 -128.84375 39.734375 -128.84375 L 24.171875 -128.84375 L 24.171875 -75.796875 Z M 36.046875 -75.796875 "/></g></g></g><g fill="#000000" fill-opacity="1"><g transform="translate(729.314646, 423.230625)"><g><path d="M 41.78125 -143.390625 C 52.976562 -143.390625 61.207031 -140.210938 66.46875 -133.859375 C 71.726562 -127.515625 74.359375 -118.8125 74.359375 -107.75 L 74.359375 -35.4375 C 74.359375 -24.375 71.726562 -15.703125 66.46875 -9.421875 C 61.207031 -3.140625 52.976562 0 41.78125 0 L 8.1875 0 L 8.1875 -143.390625 Z M 41.578125 -14.546875 C 47.316406 -14.546875 51.582031 -16.285156 54.375 -19.765625 C 57.175781 -23.242188 58.578125 -28.265625 58.578125 -34.828125 L 58.578125 -108.5625 C 58.578125 -115.125 57.175781 -120.144531 54.375 -123.625 C 51.582031 -127.101562 47.25 -128.84375 41.375 -128.84375 L 24.171875 -128.84375 L 24.171875 -14.546875 Z M 41.578125 -14.546875 "/></g></g></g><g fill="#000000" fill-opacity="1"><g transform="translate(810.428185, 423.230625)"><g><path d="M 23.359375 -33.796875 C 23.359375 -27.242188 24.6875 -22.15625 27.34375 -18.53125 C 30.007812 -14.914062 34.28125 -13.109375 40.15625 -13.109375 C 45.882812 -13.109375 50.078125 -14.914062 52.734375 -18.53125 C 55.398438 -22.15625 56.734375 -27.242188 56.734375 -33.796875 L 56.734375 -143.390625 L 71.703125 -143.390625 L 71.703125 -34.625 C 71.703125 -23.695312 69.101562 -14.921875 63.90625 -8.296875 C 58.71875 -1.671875 50.59375 1.640625 39.53125 1.640625 C 28.601562 1.640625 20.546875 -1.671875 15.359375 -8.296875 C 10.171875 -14.921875 7.578125 -23.695312 7.578125 -34.625 L 7.578125 -143.390625 L 23.359375 -143.390625 Z M 23.359375 -33.796875 "/></g></g></g><g fill="#000000" fill-opacity="1"><g transform="translate(889.698228, 423.230625)"><g><path d="M 39.53125 -143.390625 C 50.863281 -143.390625 59.054688 -140.28125 64.109375 -134.0625 C 69.171875 -127.851562 71.703125 -119.285156 71.703125 -108.359375 L 71.703125 -91.15625 C 71.703125 -79.6875 69.003906 -71.046875 63.609375 -65.234375 C 58.210938 -59.429688 49.78125 -56.53125 38.3125 -56.53125 L 24.171875 -56.53125 L 24.171875 0 L 8.1875 0 L 8.1875 -143.390625 Z M 38.3125 -70.875 C 44.3125 -70.875 48.742188 -72.34375 51.609375 -75.28125 C 54.484375 -78.21875 55.921875 -83.164062 55.921875 -90.125 L 55.921875 -109.1875 C 55.921875 -115.738281 54.65625 -120.648438 52.125 -123.921875 C 49.601562 -127.203125 45.40625 -128.84375 39.53125 -128.84375 L 24.171875 -128.84375 L 24.171875 -70.875 Z M 38.3125 -70.875 "/></g></g></g><g clip-path="url(#637d441c99)"><g clip-path="url(#a9bf02a272)"><path fill="#12d6a2" d="M 522.664062 643.679688 L 917.335938 643.679688 L 917.335938 705.25 L 522.664062 705.25 Z M 522.664062 643.679688 " fill-opacity="1" fill-rule="nonzero"/></g></g><g clip-path="url(#d53690a1da)"><g clip-path="url(#9d9bc5236a)"><path fill="#000000" d="M 522.664062 643.679688 L 917.335938 643.679688 L 917.335938 705.25 L 522.664062 705.25 Z M 522.664062 643.679688 " fill-opacity="1" fill-rule="nonzero"/></g></g><g fill="#098d6a" fill-opacity="1"><g transform="translate(644.54708, 466.881325)"><g><path d="M 64.621094 -34.320312 C 63.230469 -34.9375 61.375 -34.320312 60.757812 -32.929688 C 49.007812 -8.964844 40.195312 -1.390625 36.019531 -2.164062 C 34.320312 -2.472656 28.753906 -5.71875 27.363281 -32.773438 C 27.363281 -34.011719 26.4375 -35.09375 25.355469 -35.402344 C 24.117188 -35.710938 22.726562 -35.402344 22.109375 -34.320312 C 21.179688 -33.238281 20.253906 -32 19.324219 -30.609375 C 15.460938 -25.355469 10.359375 -18.242188 4.175781 -11.59375 C 3.246094 -10.511719 2.472656 -9.894531 2.011719 -9.585938 C 0.925781 -14.996094 6.648438 -35.710938 15.769531 -42.207031 C 18.398438 -44.058594 21.953125 -45.453125 26.746094 -39.886719 C 27.828125 -38.648438 29.683594 -38.496094 30.917969 -39.578125 C 32.15625 -40.503906 32.3125 -42.515625 31.382812 -43.75 C 25.507812 -50.554688 19.941406 -50.398438 16.234375 -49.160156 C 4.328125 -44.988281 -3.710938 -22.109375 -4.019531 -11.59375 C -4.175781 -7.265625 -2.9375 -4.484375 -0.464844 -3.554688 C 3.402344 -2.011719 7.265625 -6.183594 8.503906 -7.574219 C 13.757812 -13.296875 18.550781 -19.480469 21.953125 -24.273438 C 23.652344 -6.648438 27.828125 2.164062 34.785156 3.710938 C 35.402344 3.710938 36.019531 3.863281 36.640625 3.863281 C 47.152344 3.863281 58.4375 -14.53125 66.011719 -30.300781 C 66.785156 -31.847656 66.167969 -33.546875 64.621094 -34.320312 Z M 64.621094 -34.320312 "/></g></g></g><g fill="#098d6a" fill-opacity="1"><g transform="translate(702.055962, 466.881325)"><g><path d="M 33.082031 -57.355469 C 29.0625 -58.59375 18.550781 -57.820312 7.574219 -25.816406 C 13.757812 -60.757812 14.839844 -66.941406 14.6875 -68.023438 C 14.6875 -69.570312 13.296875 -70.960938 11.59375 -70.804688 C 10.050781 -70.652344 8.8125 -69.414062 8.8125 -67.867188 C 8.65625 -65.703125 4.792969 -44.832031 0.617188 -20.714844 C -0.308594 -15.460938 -1.390625 -10.050781 -2.320312 -4.484375 C -4.484375 -3.710938 -6.648438 -2.9375 -8.8125 -2.320312 C -10.359375 -1.855469 -11.285156 -0.308594 -10.820312 1.390625 C -10.359375 2.9375 -8.8125 3.863281 -7.265625 3.402344 C -6.03125 3.09375 -4.792969 2.628906 -3.554688 2.320312 C -10.203125 40.039062 -17.777344 83.171875 -21.335938 106.828125 C -21.488281 108.371094 -20.40625 109.917969 -18.859375 110.074219 C -18.707031 110.074219 -18.550781 110.226562 -18.398438 110.226562 C -17.003906 110.226562 -15.613281 109.144531 -15.460938 107.753906 C -11.59375 84.875 -0.925781 30.609375 7.113281 -2.320312 C 11.902344 -4.792969 16.386719 -7.574219 20.5625 -10.820312 C 27.210938 -16.234375 35.710938 -24.890625 38.648438 -36.175781 C 41.585938 -46.535156 39.113281 -55.5 33.082031 -57.355469 Z M 32.929688 -37.722656 C 29.992188 -26.746094 20.253906 -17.003906 9.121094 -10.203125 C 10.511719 -15.460938 11.75 -19.941406 12.832031 -23.191406 C 20.871094 -46.84375 28.292969 -51.636719 30.917969 -51.636719 C 31.074219 -51.636719 31.230469 -51.636719 31.382812 -51.636719 C 33.394531 -51.015625 35.09375 -45.605469 32.929688 -37.722656 Z M 32.929688 -37.722656 "/></g></g></g><g fill="#098d6a" fill-opacity="1"><g transform="translate(748.743277, 466.881325)"><g><path d="M 33.082031 -57.355469 C 29.0625 -58.59375 18.550781 -57.820312 7.574219 -25.816406 C 13.757812 -60.757812 14.839844 -66.941406 14.6875 -68.023438 C 14.6875 -69.570312 13.296875 -70.960938 11.59375 -70.804688 C 10.050781 -70.652344 8.8125 -69.414062 8.8125 -67.867188 C 8.65625 -65.703125 4.792969 -44.832031 0.617188 -20.714844 C -0.308594 -15.460938 -1.390625 -10.050781 -2.320312 -4.484375 C -4.484375 -3.710938 -6.648438 -2.9375 -8.8125 -2.320312 C -10.359375 -1.855469 -11.285156 -0.308594 -10.820312 1.390625 C -10.359375 2.9375 -8.8125 3.863281 -7.265625 3.402344 C -6.03125 3.09375 -4.792969 2.628906 -3.554688 2.320312 C -10.203125 40.039062 -17.777344 83.171875 -21.335938 106.828125 C -21.488281 108.371094 -20.40625 109.917969 -18.859375 110.074219 C -18.707031 110.074219 -18.550781 110.226562 -18.398438 110.226562 C -17.003906 110.226562 -15.613281 109.144531 -15.460938 107.753906 C -11.59375 84.875 -0.925781 30.609375 7.113281 -2.320312 C 11.902344 -4.792969 16.386719 -7.574219 20.5625 -10.820312 C 27.210938 -16.234375 35.710938 -24.890625 38.648438 -36.175781 C 41.585938 -46.535156 39.113281 -55.5 33.082031 -57.355469 Z M 32.929688 -37.722656 C 29.992188 -26.746094 20.253906 -17.003906 9.121094 -10.203125 C 10.511719 -15.460938 11.75 -19.941406 12.832031 -23.191406 C 20.871094 -46.84375 28.292969 -51.636719 30.917969 -51.636719 C 31.074219 -51.636719 31.230469 -51.636719 31.382812 -51.636719 C 33.394531 -51.015625 35.09375 -45.605469 32.929688 -37.722656 Z M 32.929688 -37.722656 "/></g></g></g><g fill="#000000" fill-opacity="1"><g transform="translate(614.648642, 683.387386)"><g><path d="M 3.625 -4.296875 L 2.796875 0 L 0.609375 0 L 4.6875 -21.296875 L 8.125 -21.296875 L 12.203125 0 L 9.828125 0 L 9 -4.296875 Z M 3.921875 -6.328125 L 8.671875 -6.328125 L 6.265625 -18.625 Z M 3.921875 -6.328125 "/></g></g></g><g fill="#000000" fill-opacity="1"><g transform="translate(632.051469, 683.387386)"><g><path d="M 1.21875 0 L 1.21875 -21.296875 L 3.59375 -21.296875 L 3.59375 -2.15625 L 9.671875 -2.15625 L 9.671875 0 Z M 1.21875 0 "/></g></g></g><g fill="#000000" fill-opacity="1"><g transform="translate(646.868446, 683.387386)"><g><path d="M 3.59375 -21.296875 L 3.59375 0 L 1.21875 0 L 1.21875 -21.296875 Z M 3.59375 -21.296875 "/></g></g></g><g fill="#000000" fill-opacity="1"><g transform="translate(656.239923, 683.387386)"><g/></g></g><g fill="#000000" fill-opacity="1"><g transform="translate(665.520134, 683.387386)"><g><path d="M 6 -21.296875 C 7.65625 -21.296875 8.835938 -20.90625 9.546875 -20.125 C 10.265625 -19.34375 10.625 -18.160156 10.625 -16.578125 L 10.625 -15.578125 C 10.625 -14.441406 10.4375 -13.519531 10.0625 -12.8125 C 9.695312 -12.113281 9.050781 -11.625 8.125 -11.34375 C 9.15625 -11.0625 9.890625 -10.523438 10.328125 -9.734375 C 10.765625 -8.941406 10.984375 -7.957031 10.984375 -6.78125 L 10.984375 -4.984375 C 10.984375 -3.378906 10.585938 -2.144531 9.796875 -1.28125 C 9.003906 -0.425781 7.773438 0 6.109375 0 L 1.21875 0 L 1.21875 -21.296875 Z M 5.421875 -12.265625 C 6.367188 -12.265625 7.082031 -12.457031 7.5625 -12.84375 C 8.039062 -13.226562 8.28125 -13.976562 8.28125 -15.09375 L 8.28125 -16.34375 C 8.28125 -17.289062 8.097656 -17.992188 7.734375 -18.453125 C 7.378906 -18.910156 6.78125 -19.140625 5.9375 -19.140625 L 3.59375 -19.140625 L 3.59375 -12.265625 Z M 6.109375 -2.15625 C 7.796875 -2.15625 8.640625 -3.117188 8.640625 -5.046875 L 8.640625 -6.9375 C 8.640625 -8.132812 8.398438 -8.957031 7.921875 -9.40625 C 7.441406 -9.863281 6.6875 -10.09375 5.65625 -10.09375 L 3.59375 -10.09375 L 3.59375 -2.15625 Z M 6.109375 -2.15625 "/></g></g></g><g fill="#000000" fill-opacity="1"><g transform="translate(682.010303, 683.387386)"><g><path d="M 5.96875 -21.296875 C 7.644531 -21.296875 8.851562 -20.878906 9.59375 -20.046875 C 10.332031 -19.210938 10.703125 -18.003906 10.703125 -16.421875 L 10.703125 -14.6875 C 10.703125 -13.507812 10.488281 -12.554688 10.0625 -11.828125 C 9.644531 -11.097656 8.976562 -10.59375 8.0625 -10.3125 C 9.03125 -10.03125 9.71875 -9.507812 10.125 -8.75 C 10.53125 -7.988281 10.734375 -7.03125 10.734375 -5.875 L 10.734375 -2.5625 C 10.734375 -2.09375 10.753906 -1.640625 10.796875 -1.203125 C 10.835938 -0.765625 10.960938 -0.363281 11.171875 0 L 8.765625 0 C 8.617188 -0.300781 8.515625 -0.628906 8.453125 -0.984375 C 8.390625 -1.335938 8.359375 -1.867188 8.359375 -2.578125 L 8.359375 -5.9375 C 8.359375 -7.132812 8.085938 -7.957031 7.546875 -8.40625 C 7.015625 -8.863281 6.253906 -9.09375 5.265625 -9.09375 L 3.59375 -9.09375 L 3.59375 0 L 1.21875 0 L 1.21875 -21.296875 Z M 5.359375 -11.25 C 6.304688 -11.25 7.039062 -11.445312 7.5625 -11.84375 C 8.09375 -12.238281 8.359375 -13.015625 8.359375 -14.171875 L 8.359375 -16.21875 C 8.359375 -17.1875 8.171875 -17.914062 7.796875 -18.40625 C 7.421875 -18.894531 6.789062 -19.140625 5.90625 -19.140625 L 3.59375 -19.140625 L 3.59375 -11.25 Z M 5.359375 -11.25 "/></g></g></g><g fill="#000000" fill-opacity="1"><g transform="translate(698.56132, 683.387386)"><g><path d="M 3.625 -4.296875 L 2.796875 0 L 0.609375 0 L 4.6875 -21.296875 L 8.125 -21.296875 L 12.203125 0 L 9.828125 0 L 9 -4.296875 Z M 3.921875 -6.328125 L 8.671875 -6.328125 L 6.265625 -18.625 Z M 3.921875 -6.328125 "/></g></g></g><g fill="#000000" fill-opacity="1"><g transform="translate(715.964144, 683.387386)"><g><path d="M 8.796875 -11.859375 L 8.796875 -9.734375 L 3.59375 -9.734375 L 3.59375 -2.15625 L 9.984375 -2.15625 L 9.984375 0 L 1.21875 0 L 1.21875 -21.296875 L 9.984375 -21.296875 L 9.984375 -19.140625 L 3.59375 -19.140625 L 3.59375 -11.859375 Z M 8.796875 -11.859375 "/></g></g></g><g fill="#000000" fill-opacity="1"><g transform="translate(731.480821, 683.387386)"><g/></g></g><g fill="#000000" fill-opacity="1"><g transform="translate(740.761029, 683.387386)"><g><path d="M 6.203125 -21.296875 C 7.867188 -21.296875 9.09375 -20.820312 9.875 -19.875 C 10.65625 -18.9375 11.046875 -17.644531 11.046875 -16 L 11.046875 -5.265625 C 11.046875 -3.617188 10.65625 -2.328125 9.875 -1.390625 C 9.09375 -0.460938 7.867188 0 6.203125 0 L 1.21875 0 L 1.21875 -21.296875 Z M 6.171875 -2.15625 C 7.023438 -2.15625 7.660156 -2.414062 8.078125 -2.9375 C 8.492188 -3.457031 8.703125 -4.203125 8.703125 -5.171875 L 8.703125 -16.125 C 8.703125 -17.09375 8.492188 -17.835938 8.078125 -18.359375 C 7.660156 -18.878906 7.015625 -19.140625 6.140625 -19.140625 L 3.59375 -19.140625 L 3.59375 -2.15625 Z M 6.171875 -2.15625 "/></g></g></g><g fill="#000000" fill-opacity="1"><g transform="translate(757.372895, 683.387386)"><g><path d="M 8.796875 -11.859375 L 8.796875 -9.734375 L 3.59375 -9.734375 L 3.59375 -2.15625 L 9.984375 -2.15625 L 9.984375 0 L 1.21875 0 L 1.21875 -21.296875 L 9.984375 -21.296875 L 9.984375 -19.140625 L 3.59375 -19.140625 L 3.59375 -11.859375 Z M 8.796875 -11.859375 "/></g></g></g><g fill="#000000" fill-opacity="1"><g transform="translate(772.889572, 683.387386)"><g><path d="M 5.6875 -21.515625 C 7.3125 -21.515625 8.507812 -21.03125 9.28125 -20.0625 C 10.050781 -19.101562 10.4375 -17.8125 10.4375 -16.1875 L 10.4375 -15.609375 L 8.1875 -15.609375 L 8.1875 -16.3125 C 8.1875 -17.28125 7.992188 -18.023438 7.609375 -18.546875 C 7.222656 -19.078125 6.601562 -19.34375 5.75 -19.34375 C 4.894531 -19.34375 4.273438 -19.078125 3.890625 -18.546875 C 3.503906 -18.023438 3.3125 -17.289062 3.3125 -16.34375 C 3.3125 -15.550781 3.488281 -14.859375 3.84375 -14.265625 C 4.195312 -13.679688 4.640625 -13.140625 5.171875 -12.640625 C 5.703125 -12.140625 6.273438 -11.648438 6.890625 -11.171875 C 7.503906 -10.703125 8.078125 -10.179688 8.609375 -9.609375 C 9.140625 -9.046875 9.582031 -8.40625 9.9375 -7.6875 C 10.289062 -6.96875 10.46875 -6.109375 10.46875 -5.109375 C 10.46875 -3.484375 10.078125 -2.1875 9.296875 -1.21875 C 8.515625 -0.257812 7.300781 0.21875 5.65625 0.21875 C 4.007812 0.21875 2.800781 -0.257812 2.03125 -1.21875 C 1.257812 -2.1875 0.875 -3.484375 0.875 -5.109375 L 0.875 -6.328125 L 3.109375 -6.328125 L 3.109375 -4.984375 C 3.109375 -4.015625 3.304688 -3.265625 3.703125 -2.734375 C 4.109375 -2.210938 4.738281 -1.953125 5.59375 -1.953125 C 6.445312 -1.953125 7.078125 -2.210938 7.484375 -2.734375 C 7.890625 -3.265625 8.09375 -4.015625 8.09375 -4.984375 C 8.09375 -5.773438 7.914062 -6.457031 7.5625 -7.03125 C 7.207031 -7.613281 6.765625 -8.15625 6.234375 -8.65625 C 5.710938 -9.15625 5.144531 -9.640625 4.53125 -10.109375 C 3.925781 -10.585938 3.359375 -11.109375 2.828125 -11.671875 C 2.296875 -12.242188 1.851562 -12.890625 1.5 -13.609375 C 1.144531 -14.328125 0.96875 -15.1875 0.96875 -16.1875 C 0.96875 -17.832031 1.351562 -19.128906 2.125 -20.078125 C 2.894531 -21.035156 4.082031 -21.515625 5.6875 -21.515625 Z M 5.6875 -21.515625 "/></g></g></g><g fill="#000000" fill-opacity="1"><g transform="translate(788.771304, 683.387386)"><g><path d="M 3.59375 -21.296875 L 3.59375 0 L 1.21875 0 L 1.21875 -21.296875 Z M 3.59375 -21.296875 "/></g></g></g><g fill="#000000" fill-opacity="1"><g transform="translate(798.142779, 683.387386)"><g><path d="M 5.8125 -21.515625 C 7.457031 -21.515625 8.671875 -21.023438 9.453125 -20.046875 C 10.234375 -19.078125 10.625 -17.78125 10.625 -16.15625 L 10.625 -14.328125 L 8.359375 -14.328125 L 8.359375 -16.28125 C 8.359375 -17.25 8.160156 -18 7.765625 -18.53125 C 7.367188 -19.070312 6.738281 -19.34375 5.875 -19.34375 C 5.019531 -19.34375 4.390625 -19.070312 3.984375 -18.53125 C 3.578125 -18 3.375 -17.25 3.375 -16.28125 L 3.375 -5.015625 C 3.375 -4.046875 3.578125 -3.289062 3.984375 -2.75 C 4.390625 -2.21875 5.019531 -1.953125 5.875 -1.953125 C 6.738281 -1.953125 7.367188 -2.21875 7.765625 -2.75 C 8.160156 -3.289062 8.359375 -4.046875 8.359375 -5.015625 L 8.359375 -9.28125 L 6.171875 -9.28125 L 6.171875 -11.40625 L 10.625 -11.40625 L 10.625 -5.140625 C 10.625 -3.515625 10.234375 -2.210938 9.453125 -1.234375 C 8.671875 -0.265625 7.457031 0.21875 5.8125 0.21875 C 4.1875 0.21875 2.984375 -0.265625 2.203125 -1.234375 C 1.421875 -2.210938 1.03125 -3.515625 1.03125 -5.140625 L 1.03125 -16.15625 C 1.03125 -16.96875 1.125 -17.703125 1.3125 -18.359375 C 1.507812 -19.015625 1.804688 -19.578125 2.203125 -20.046875 C 2.597656 -20.515625 3.09375 -20.875 3.6875 -21.125 C 4.289062 -21.382812 5 -21.515625 5.8125 -21.515625 Z M 5.8125 -21.515625 "/></g></g></g><g fill="#000000" fill-opacity="1"><g transform="translate(814.359159, 683.387386)"><g><path d="M 3.3125 0 L 1.1875 0 L 1.1875 -21.296875 L 4.203125 -21.296875 L 9.125 -5.90625 L 9.125 -21.296875 L 11.21875 -21.296875 L 11.21875 0 L 8.765625 0 L 3.3125 -17.21875 Z M 3.3125 0 "/></g></g></g><g fill="#000000" fill-opacity="1"><g transform="translate(81.000002, 108.381358)"><g><path d="M 13.34375 0 L 9.59375 0 L 8.953125 -4.28125 L 4.40625 -4.28125 L 3.765625 0 L 0.375 0 L 4.140625 -23.578125 L 9.5625 -23.578125 Z M 4.890625 -7.484375 L 8.453125 -7.484375 L 6.671875 -19.40625 Z M 4.890625 -7.484375 "/></g></g></g><g fill="#000000" fill-opacity="1"><g transform="translate(94.707597, 108.381358)"><g/></g></g><g fill="#000000" fill-opacity="1"><g transform="translate(99.927934, 108.381358)"><g><path d="M 12.09375 -8.796875 L 12.09375 -5.65625 C 12.09375 -3.75 11.625 -2.285156 10.6875 -1.265625 C 9.757812 -0.242188 8.382812 0.265625 6.5625 0.265625 C 4.75 0.265625 3.375 -0.242188 2.4375 -1.265625 C 1.507812 -2.285156 1.046875 -3.75 1.046875 -5.65625 L 1.046875 -17.921875 C 1.046875 -19.828125 1.507812 -21.289062 2.4375 -22.3125 C 3.375 -23.332031 4.75 -23.84375 6.5625 -23.84375 C 8.382812 -23.84375 9.757812 -23.332031 10.6875 -22.3125 C 11.625 -21.289062 12.09375 -19.828125 12.09375 -17.921875 L 12.09375 -15.625 L 8.59375 -15.625 L 8.59375 -18.15625 C 8.59375 -19.007812 8.414062 -19.609375 8.0625 -19.953125 C 7.71875 -20.304688 7.253906 -20.484375 6.671875 -20.484375 C 6.085938 -20.484375 5.617188 -20.304688 5.265625 -19.953125 C 4.921875 -19.609375 4.75 -19.007812 4.75 -18.15625 L 4.75 -5.421875 C 4.75 -4.566406 4.921875 -3.972656 5.265625 -3.640625 C 5.617188 -3.304688 6.085938 -3.140625 6.671875 -3.140625 C 7.253906 -3.140625 7.71875 -3.304688 8.0625 -3.640625 C 8.414062 -3.972656 8.59375 -4.566406 8.59375 -5.421875 L 8.59375 -8.796875 Z M 12.09375 -8.796875 "/></g></g></g><g fill="#000000" fill-opacity="1"><g transform="translate(112.928261, 108.381358)"><g><path d="M 4.75 -5.421875 C 4.75 -4.566406 4.921875 -3.960938 5.265625 -3.609375 C 5.617188 -3.265625 6.085938 -3.09375 6.671875 -3.09375 C 7.253906 -3.09375 7.71875 -3.265625 8.0625 -3.609375 C 8.414062 -3.960938 8.59375 -4.566406 8.59375 -5.421875 L 8.59375 -18.15625 C 8.59375 -19.007812 8.414062 -19.609375 8.0625 -19.953125 C 7.71875 -20.304688 7.253906 -20.484375 6.671875 -20.484375 C 6.085938 -20.484375 5.617188 -20.304688 5.265625 -19.953125 C 4.921875 -19.609375 4.75 -19.007812 4.75 -18.15625 Z M 1.046875 -17.921875 C 1.046875 -19.828125 1.523438 -21.289062 2.484375 -22.3125 C 3.453125 -23.332031 4.847656 -23.84375 6.671875 -23.84375 C 8.492188 -23.84375 9.882812 -23.332031 10.84375 -22.3125 C 11.8125 -21.289062 12.296875 -19.828125 12.296875 -17.921875 L 12.296875 -5.65625 C 12.296875 -3.75 11.8125 -2.285156 10.84375 -1.265625 C 9.882812 -0.242188 8.492188 0.265625 6.671875 0.265625 C 4.847656 0.265625 3.453125 -0.242188 2.484375 -1.265625 C 1.523438 -2.285156 1.046875 -3.75 1.046875 -5.65625 Z M 1.046875 -17.921875 "/></g></g></g><g fill="#000000" fill-opacity="1"><g transform="translate(126.265388, 108.381358)"><g><path d="M 9.203125 -6.84375 L 11.71875 -23.578125 L 16.875 -23.578125 L 16.875 0 L 13.375 0 L 13.375 -16.90625 L 10.8125 0 L 7.3125 0 L 4.546875 -16.671875 L 4.546875 0 L 1.3125 0 L 1.3125 -23.578125 L 6.46875 -23.578125 Z M 9.203125 -6.84375 "/></g></g></g><g fill="#000000" fill-opacity="1"><g transform="translate(144.486052, 108.381358)"><g><path d="M 9.203125 -6.84375 L 11.71875 -23.578125 L 16.875 -23.578125 L 16.875 0 L 13.375 0 L 13.375 -16.90625 L 10.8125 0 L 7.3125 0 L 4.546875 -16.671875 L 4.546875 0 L 1.3125 0 L 1.3125 -23.578125 L 6.46875 -23.578125 Z M 9.203125 -6.84375 "/></g></g></g><g fill="#000000" fill-opacity="1"><g transform="translate(162.706716, 108.381358)"><g><path d="M 4.890625 -23.578125 L 4.890625 -5.390625 C 4.890625 -4.535156 5.0625 -3.9375 5.40625 -3.59375 C 5.75 -3.257812 6.21875 -3.09375 6.8125 -3.09375 C 7.394531 -3.09375 7.859375 -3.257812 8.203125 -3.59375 C 8.546875 -3.9375 8.71875 -4.535156 8.71875 -5.390625 L 8.71875 -23.578125 L 12.234375 -23.578125 L 12.234375 -5.625 C 12.234375 -3.71875 11.765625 -2.253906 10.828125 -1.234375 C 9.898438 -0.210938 8.523438 0.296875 6.703125 0.296875 C 4.878906 0.296875 3.5 -0.210938 2.5625 -1.234375 C 1.632812 -2.253906 1.171875 -3.71875 1.171875 -5.625 L 1.171875 -23.578125 Z M 4.890625 -23.578125 "/></g></g></g><g fill="#000000" fill-opacity="1"><g transform="translate(176.111203, 108.381358)"><g><path d="M 4.65625 -17.078125 L 4.65625 0 L 1.3125 0 L 1.3125 -23.578125 L 5.96875 -23.578125 L 9.765625 -9.46875 L 9.765625 -23.578125 L 13.078125 -23.578125 L 13.078125 0 L 9.265625 0 Z M 4.65625 -17.078125 "/></g></g></g><g fill="#000000" fill-opacity="1"><g transform="translate(190.492398, 108.381358)"><g><path d="M 1.34375 -23.578125 L 5.046875 -23.578125 L 5.046875 0 L 1.34375 0 Z M 1.34375 -23.578125 "/></g></g></g><g fill="#000000" fill-opacity="1"><g transform="translate(196.891522, 108.381358)"><g><path d="M 0.265625 -23.578125 L 11.71875 -23.578125 L 11.71875 -20.21875 L 7.84375 -20.21875 L 7.84375 0 L 4.140625 0 L 4.140625 -20.21875 L 0.265625 -20.21875 Z M 0.265625 -23.578125 "/></g></g></g><g fill="#000000" fill-opacity="1"><g transform="translate(208.881462, 108.381358)"><g><path d="M 4.8125 -7.8125 L 0.140625 -23.578125 L 4.015625 -23.578125 L 6.84375 -12.828125 L 9.671875 -23.578125 L 13.203125 -23.578125 L 8.515625 -7.8125 L 8.515625 0 L 4.8125 0 Z M 4.8125 -7.8125 "/></g></g></g><g fill="#000000" fill-opacity="1"><g transform="translate(222.218589, 108.381358)"><g><path d="M 1.171875 -13.46875 L 7.921875 -13.46875 L 7.921875 -10.109375 L 1.171875 -10.109375 Z M 1.171875 -13.46875 "/></g></g></g><g fill="#000000" fill-opacity="1"><g transform="translate(231.312086, 108.381358)"><g><path d="M 6.9375 -23.578125 C 8.875 -23.578125 10.273438 -23.128906 11.140625 -22.234375 C 12.003906 -21.335938 12.4375 -19.976562 12.4375 -18.15625 L 12.4375 -17.3125 C 12.4375 -16.101562 12.242188 -15.101562 11.859375 -14.3125 C 11.472656 -13.53125 10.863281 -12.945312 10.03125 -12.5625 C 11.050781 -12.1875 11.765625 -11.566406 12.171875 -10.703125 C 12.585938 -9.835938 12.796875 -8.773438 12.796875 -7.515625 L 12.796875 -5.59375 C 12.796875 -3.769531 12.320312 -2.378906 11.375 -1.421875 C 10.4375 -0.472656 9.035156 0 7.171875 0 L 1.34375 0 L 1.34375 -23.578125 Z M 5.046875 -10.609375 L 5.046875 -3.375 L 7.171875 -3.375 C 7.804688 -3.375 8.285156 -3.539062 8.609375 -3.875 C 8.929688 -4.207031 9.09375 -4.8125 9.09375 -5.6875 L 9.09375 -7.75 C 9.09375 -8.851562 8.90625 -9.601562 8.53125 -10 C 8.164062 -10.40625 7.554688 -10.609375 6.703125 -10.609375 Z M 5.046875 -20.21875 L 5.046875 -13.984375 L 6.5 -13.984375 C 7.195312 -13.984375 7.738281 -14.160156 8.125 -14.515625 C 8.519531 -14.878906 8.71875 -15.53125 8.71875 -16.46875 L 8.71875 -17.78125 C 8.71875 -18.632812 8.566406 -19.253906 8.265625 -19.640625 C 7.960938 -20.023438 7.488281 -20.21875 6.84375 -20.21875 Z M 5.046875 -20.21875 "/></g></g></g><g fill="#000000" fill-opacity="1"><g transform="translate(244.986002, 108.381358)"><g><path d="M 13.34375 0 L 9.59375 0 L 8.953125 -4.28125 L 4.40625 -4.28125 L 3.765625 0 L 0.375 0 L 4.140625 -23.578125 L 9.5625 -23.578125 Z M 4.890625 -7.484375 L 8.453125 -7.484375 L 6.671875 -19.40625 Z M 4.890625 -7.484375 "/></g></g></g><g fill="#000000" fill-opacity="1"><g transform="translate(258.693597, 108.381358)"><g><path d="M 0.875 -17.921875 C 0.875 -19.828125 1.328125 -21.289062 2.234375 -22.3125 C 3.148438 -23.332031 4.515625 -23.84375 6.328125 -23.84375 C 8.148438 -23.84375 9.515625 -23.332031 10.421875 -22.3125 C 11.335938 -21.289062 11.796875 -19.828125 11.796875 -17.921875 L 11.796875 -17.1875 L 8.28125 -17.1875 L 8.28125 -18.15625 C 8.28125 -19.007812 8.117188 -19.609375 7.796875 -19.953125 C 7.472656 -20.304688 7.019531 -20.484375 6.4375 -20.484375 C 5.851562 -20.484375 5.394531 -20.304688 5.0625 -19.953125 C 4.738281 -19.609375 4.578125 -19.007812 4.578125 -18.15625 C 4.578125 -17.34375 4.753906 -16.628906 5.109375 -16.015625 C 5.472656 -15.398438 5.925781 -14.816406 6.46875 -14.265625 C 7.007812 -13.710938 7.585938 -13.160156 8.203125 -12.609375 C 8.816406 -12.066406 9.394531 -11.46875 9.9375 -10.8125 C 10.476562 -10.164062 10.925781 -9.425781 11.28125 -8.59375 C 11.644531 -7.757812 11.828125 -6.78125 11.828125 -5.65625 C 11.828125 -3.75 11.359375 -2.285156 10.421875 -1.265625 C 9.492188 -0.242188 8.117188 0.265625 6.296875 0.265625 C 4.484375 0.265625 3.109375 -0.242188 2.171875 -1.265625 C 1.242188 -2.285156 0.78125 -3.75 0.78125 -5.65625 L 0.78125 -7.109375 L 4.28125 -7.109375 L 4.28125 -5.421875 C 4.28125 -4.566406 4.453125 -3.972656 4.796875 -3.640625 C 5.148438 -3.304688 5.617188 -3.140625 6.203125 -3.140625 C 6.785156 -3.140625 7.25 -3.304688 7.59375 -3.640625 C 7.945312 -3.972656 8.125 -4.566406 8.125 -5.421875 C 8.125 -6.234375 7.941406 -6.945312 7.578125 -7.5625 C 7.222656 -8.175781 6.773438 -8.757812 6.234375 -9.3125 C 5.691406 -9.863281 5.113281 -10.414062 4.5 -10.96875 C 3.882812 -11.519531 3.304688 -12.117188 2.765625 -12.765625 C 2.222656 -13.421875 1.769531 -14.160156 1.40625 -14.984375 C 1.050781 -15.816406 0.875 -16.796875 0.875 -17.921875 Z M 0.875 -17.921875 "/></g></g></g><g fill="#000000" fill-opacity="1"><g transform="translate(271.289764, 108.381358)"><g><path d="M 5.046875 -13.640625 L 10.140625 -13.640625 L 10.140625 -10.28125 L 5.046875 -10.28125 L 5.046875 -3.375 L 11.453125 -3.375 L 11.453125 0 L 1.34375 0 L 1.34375 -23.578125 L 11.453125 -23.578125 L 11.453125 -20.21875 L 5.046875 -20.21875 Z M 5.046875 -13.640625 "/></g></g></g><g fill="#000000" fill-opacity="1"><g transform="translate(283.683875, 108.381358)"><g><path d="M 1.34375 -23.578125 L 7.203125 -23.578125 C 9.066406 -23.578125 10.453125 -23.082031 11.359375 -22.09375 C 12.273438 -21.101562 12.734375 -19.65625 12.734375 -17.75 L 12.734375 -5.828125 C 12.734375 -3.921875 12.273438 -2.472656 11.359375 -1.484375 C 10.453125 -0.492188 9.066406 0 7.203125 0 L 1.34375 0 Z M 5.046875 -20.21875 L 5.046875 -3.375 L 7.140625 -3.375 C 7.722656 -3.375 8.179688 -3.539062 8.515625 -3.875 C 8.859375 -4.207031 9.03125 -4.800781 9.03125 -5.65625 L 9.03125 -17.921875 C 9.03125 -18.773438 8.859375 -19.367188 8.515625 -19.703125 C 8.179688 -20.046875 7.722656 -20.21875 7.140625 -20.21875 Z M 5.046875 -20.21875 "/></g></g></g><g fill="#000000" fill-opacity="1"><g transform="translate(81.000002, 154.881355)"><g><path d="M 1.34375 -23.578125 L 5.046875 -23.578125 L 5.046875 -3.375 L 11.15625 -3.375 L 11.15625 0 L 1.34375 0 Z M 1.34375 -23.578125 "/></g></g></g><g fill="#000000" fill-opacity="1"><g transform="translate(92.417383, 154.881355)"><g><path d="M 13.34375 0 L 9.59375 0 L 8.953125 -4.28125 L 4.40625 -4.28125 L 3.765625 0 L 0.375 0 L 4.140625 -23.578125 L 9.5625 -23.578125 Z M 4.890625 -7.484375 L 8.453125 -7.484375 L 6.671875 -19.40625 Z M 4.890625 -7.484375 "/></g></g></g><g fill="#000000" fill-opacity="1"><g transform="translate(106.124978, 154.881355)"><g><path d="M 4.65625 -17.078125 L 4.65625 0 L 1.3125 0 L 1.3125 -23.578125 L 5.96875 -23.578125 L 9.765625 -9.46875 L 9.765625 -23.578125 L 13.078125 -23.578125 L 13.078125 0 L 9.265625 0 Z M 4.65625 -17.078125 "/></g></g></g><g fill="#000000" fill-opacity="1"><g transform="translate(120.506172, 154.881355)"><g><path d="M 6.90625 -13.140625 L 12.09375 -13.140625 L 12.09375 -5.65625 C 12.09375 -3.75 11.625 -2.285156 10.6875 -1.265625 C 9.757812 -0.242188 8.382812 0.265625 6.5625 0.265625 C 4.75 0.265625 3.375 -0.242188 2.4375 -1.265625 C 1.507812 -2.285156 1.046875 -3.75 1.046875 -5.65625 L 1.046875 -17.921875 C 1.046875 -19.828125 1.507812 -21.289062 2.4375 -22.3125 C 3.375 -23.332031 4.75 -23.84375 6.5625 -23.84375 C 8.382812 -23.84375 9.757812 -23.332031 10.6875 -22.3125 C 11.625 -21.289062 12.09375 -19.828125 12.09375 -17.921875 L 12.09375 -15.625 L 8.59375 -15.625 L 8.59375 -18.15625 C 8.59375 -19.007812 8.414062 -19.609375 8.0625 -19.953125 C 7.71875 -20.304688 7.253906 -20.484375 6.671875 -20.484375 C 6.085938 -20.484375 5.617188 -20.304688 5.265625 -19.953125 C 4.921875 -19.609375 4.75 -19.007812 4.75 -18.15625 L 4.75 -5.421875 C 4.75 -4.566406 4.921875 -3.972656 5.265625 -3.640625 C 5.617188 -3.304688 6.085938 -3.140625 6.671875 -3.140625 C 7.253906 -3.140625 7.71875 -3.304688 8.0625 -3.640625 C 8.414062 -3.972656 8.59375 -4.566406 8.59375 -5.421875 L 8.59375 -9.765625 L 6.90625 -9.765625 Z M 6.90625 -13.140625 "/></g></g></g><g fill="#000000" fill-opacity="1"><g transform="translate(133.641219, 154.881355)"><g><path d="M 4.890625 -23.578125 L 4.890625 -5.390625 C 4.890625 -4.535156 5.0625 -3.9375 5.40625 -3.59375 C 5.75 -3.257812 6.21875 -3.09375 6.8125 -3.09375 C 7.394531 -3.09375 7.859375 -3.257812 8.203125 -3.59375 C 8.546875 -3.9375 8.71875 -4.535156 8.71875 -5.390625 L 8.71875 -23.578125 L 12.234375 -23.578125 L 12.234375 -5.625 C 12.234375 -3.71875 11.765625 -2.253906 10.828125 -1.234375 C 9.898438 -0.210938 8.523438 0.296875 6.703125 0.296875 C 4.878906 0.296875 3.5 -0.210938 2.5625 -1.234375 C 1.632812 -2.253906 1.171875 -3.71875 1.171875 -5.625 L 1.171875 -23.578125 Z M 4.890625 -23.578125 "/></g></g></g><g fill="#000000" fill-opacity="1"><g transform="translate(147.045706, 154.881355)"><g><path d="M 13.34375 0 L 9.59375 0 L 8.953125 -4.28125 L 4.40625 -4.28125 L 3.765625 0 L 0.375 0 L 4.140625 -23.578125 L 9.5625 -23.578125 Z M 4.890625 -7.484375 L 8.453125 -7.484375 L 6.671875 -19.40625 Z M 4.890625 -7.484375 "/></g></g></g><g fill="#000000" fill-opacity="1"><g transform="translate(160.753301, 154.881355)"><g><path d="M 6.90625 -13.140625 L 12.09375 -13.140625 L 12.09375 -5.65625 C 12.09375 -3.75 11.625 -2.285156 10.6875 -1.265625 C 9.757812 -0.242188 8.382812 0.265625 6.5625 0.265625 C 4.75 0.265625 3.375 -0.242188 2.4375 -1.265625 C 1.507812 -2.285156 1.046875 -3.75 1.046875 -5.65625 L 1.046875 -17.921875 C 1.046875 -19.828125 1.507812 -21.289062 2.4375 -22.3125 C 3.375 -23.332031 4.75 -23.84375 6.5625 -23.84375 C 8.382812 -23.84375 9.757812 -23.332031 10.6875 -22.3125 C 11.625 -21.289062 12.09375 -19.828125 12.09375 -17.921875 L 12.09375 -15.625 L 8.59375 -15.625 L 8.59375 -18.15625 C 8.59375 -19.007812 8.414062 -19.609375 8.0625 -19.953125 C 7.71875 -20.304688 7.253906 -20.484375 6.671875 -20.484375 C 6.085938 -20.484375 5.617188 -20.304688 5.265625 -19.953125 C 4.921875 -19.609375 4.75 -19.007812 4.75 -18.15625 L 4.75 -5.421875 C 4.75 -4.566406 4.921875 -3.972656 5.265625 -3.640625 C 5.617188 -3.304688 6.085938 -3.140625 6.671875 -3.140625 C 7.253906 -3.140625 7.71875 -3.304688 8.0625 -3.640625 C 8.414062 -3.972656 8.59375 -4.566406 8.59375 -5.421875 L 8.59375 -9.765625 L 6.90625 -9.765625 Z M 6.90625 -13.140625 "/></g></g></g><g fill="#000000" fill-opacity="1"><g transform="translate(173.888348, 154.881355)"><g><path d="M 5.046875 -13.640625 L 10.140625 -13.640625 L 10.140625 -10.28125 L 5.046875 -10.28125 L 5.046875 -3.375 L 11.453125 -3.375 L 11.453125 0 L 1.34375 0 L 1.34375 -23.578125 L 11.453125 -23.578125 L 11.453125 -20.21875 L 5.046875 -20.21875 Z M 5.046875 -13.640625 "/></g></g></g><g fill="#000000" fill-opacity="1"><g transform="translate(186.282448, 154.881355)"><g/></g></g><g fill="#000000" fill-opacity="1"><g transform="translate(191.502784, 154.881355)"><g><path d="M 1.34375 -23.578125 L 5.046875 -23.578125 L 5.046875 -3.375 L 11.15625 -3.375 L 11.15625 0 L 1.34375 0 Z M 1.34375 -23.578125 "/></g></g></g><g fill="#000000" fill-opacity="1"><g transform="translate(202.920165, 154.881355)"><g><path d="M 5.046875 -13.640625 L 10.140625 -13.640625 L 10.140625 -10.28125 L 5.046875 -10.28125 L 5.046875 -3.375 L 11.453125 -3.375 L 11.453125 0 L 1.34375 0 L 1.34375 -23.578125 L 11.453125 -23.578125 L 11.453125 -20.21875 L 5.046875 -20.21875 Z M 5.046875 -13.640625 "/></g></g></g><g fill="#000000" fill-opacity="1"><g transform="translate(215.314264, 154.881355)"><g><path d="M 13.34375 0 L 9.59375 0 L 8.953125 -4.28125 L 4.40625 -4.28125 L 3.765625 0 L 0.375 0 L 4.140625 -23.578125 L 9.5625 -23.578125 Z M 4.890625 -7.484375 L 8.453125 -7.484375 L 6.671875 -19.40625 Z M 4.890625 -7.484375 "/></g></g></g><g fill="#000000" fill-opacity="1"><g transform="translate(229.021859, 154.881355)"><g><path d="M 9.09375 0 C 9.050781 -0.15625 9.003906 -0.300781 8.953125 -0.4375 C 8.910156 -0.570312 8.875 -0.738281 8.84375 -0.9375 C 8.8125 -1.144531 8.789062 -1.40625 8.78125 -1.71875 C 8.769531 -2.03125 8.765625 -2.421875 8.765625 -2.890625 L 8.765625 -6.609375 C 8.765625 -7.703125 8.570312 -8.472656 8.1875 -8.921875 C 7.800781 -9.367188 7.179688 -9.59375 6.328125 -9.59375 L 5.046875 -9.59375 L 5.046875 0 L 1.34375 0 L 1.34375 -23.578125 L 6.9375 -23.578125 C 8.875 -23.578125 10.273438 -23.128906 11.140625 -22.234375 C 12.003906 -21.335938 12.4375 -19.976562 12.4375 -18.15625 L 12.4375 -16.3125 C 12.4375 -13.882812 11.625 -12.285156 10 -11.515625 C 10.945312 -11.140625 11.59375 -10.519531 11.9375 -9.65625 C 12.289062 -8.789062 12.46875 -7.738281 12.46875 -6.5 L 12.46875 -2.859375 C 12.46875 -2.273438 12.488281 -1.765625 12.53125 -1.328125 C 12.570312 -0.890625 12.6875 -0.445312 12.875 0 Z M 5.046875 -20.21875 L 5.046875 -12.96875 L 6.5 -12.96875 C 7.195312 -12.96875 7.738281 -13.144531 8.125 -13.5 C 8.519531 -13.863281 8.71875 -14.519531 8.71875 -15.46875 L 8.71875 -17.78125 C 8.71875 -18.632812 8.566406 -19.253906 8.265625 -19.640625 C 7.960938 -20.023438 7.488281 -20.21875 6.84375 -20.21875 Z M 5.046875 -20.21875 "/></g></g></g><g fill="#000000" fill-opacity="1"><g transform="translate(242.561054, 154.881355)"><g><path d="M 4.65625 -17.078125 L 4.65625 0 L 1.3125 0 L 1.3125 -23.578125 L 5.96875 -23.578125 L 9.765625 -9.46875 L 9.765625 -23.578125 L 13.078125 -23.578125 L 13.078125 0 L 9.265625 0 Z M 4.65625 -17.078125 "/></g></g></g><g fill="#000000" fill-opacity="1"><g transform="translate(256.942249, 154.881355)"><g><path d="M 1.34375 -23.578125 L 5.046875 -23.578125 L 5.046875 0 L 1.34375 0 Z M 1.34375 -23.578125 "/></g></g></g><g fill="#000000" fill-opacity="1"><g transform="translate(263.341373, 154.881355)"><g><path d="M 4.65625 -17.078125 L 4.65625 0 L 1.3125 0 L 1.3125 -23.578125 L 5.96875 -23.578125 L 9.765625 -9.46875 L 9.765625 -23.578125 L 13.078125 -23.578125 L 13.078125 0 L 9.265625 0 Z M 4.65625 -17.078125 "/></g></g></g><g fill="#000000" fill-opacity="1"><g transform="translate(277.722555, 154.881355)"><g><path d="M 6.90625 -13.140625 L 12.09375 -13.140625 L 12.09375 -5.65625 C 12.09375 -3.75 11.625 -2.285156 10.6875 -1.265625 C 9.757812 -0.242188 8.382812 0.265625 6.5625 0.265625 C 4.75 0.265625 3.375 -0.242188 2.4375 -1.265625 C 1.507812 -2.285156 1.046875 -3.75 1.046875 -5.65625 L 1.046875 -17.921875 C 1.046875 -19.828125 1.507812 -21.289062 2.4375 -22.3125 C 3.375 -23.332031 4.75 -23.84375 6.5625 -23.84375 C 8.382812 -23.84375 9.757812 -23.332031 10.6875 -22.3125 C 11.625 -21.289062 12.09375 -19.828125 12.09375 -17.921875 L 12.09375 -15.625 L 8.59375 -15.625 L 8.59375 -18.15625 C 8.59375 -19.007812 8.414062 -19.609375 8.0625 -19.953125 C 7.71875 -20.304688 7.253906 -20.484375 6.671875 -20.484375 C 6.085938 -20.484375 5.617188 -20.304688 5.265625 -19.953125 C 4.921875 -19.609375 4.75 -19.007812 4.75 -18.15625 L 4.75 -5.421875 C 4.75 -4.566406 4.921875 -3.972656 5.265625 -3.640625 C 5.617188 -3.304688 6.085938 -3.140625 6.671875 -3.140625 C 7.253906 -3.140625 7.71875 -3.304688 8.0625 -3.640625 C 8.414062 -3.972656 8.59375 -4.566406 8.59375 -5.421875 L 8.59375 -9.765625 L 6.90625 -9.765625 Z M 6.90625 -13.140625 "/></g></g></g><g fill="#000000" fill-opacity="1"><g transform="translate(290.857602, 154.881355)"><g/></g></g><g fill="#000000" fill-opacity="1"><g transform="translate(296.077939, 154.881355)"><g><path d="M 13.34375 0 L 9.59375 0 L 8.953125 -4.28125 L 4.40625 -4.28125 L 3.765625 0 L 0.375 0 L 4.140625 -23.578125 L 9.5625 -23.578125 Z M 4.890625 -7.484375 L 8.453125 -7.484375 L 6.671875 -19.40625 Z M 4.890625 -7.484375 "/></g></g></g><g fill="#000000" fill-opacity="1"><g transform="translate(309.785534, 154.881355)"><g><path d="M 6.8125 -23.578125 C 8.664062 -23.578125 10.046875 -23.082031 10.953125 -22.09375 C 11.867188 -21.101562 12.328125 -19.65625 12.328125 -17.75 L 12.328125 -14.6875 C 12.328125 -12.78125 11.867188 -11.332031 10.953125 -10.34375 C 10.046875 -9.351562 8.664062 -8.859375 6.8125 -8.859375 L 5.046875 -8.859375 L 5.046875 0 L 1.34375 0 L 1.34375 -23.578125 Z M 5.046875 -20.21875 L 5.046875 -12.234375 L 6.8125 -12.234375 C 7.394531 -12.234375 7.84375 -12.390625 8.15625 -12.703125 C 8.46875 -13.015625 8.625 -13.597656 8.625 -14.453125 L 8.625 -17.984375 C 8.625 -18.835938 8.46875 -19.421875 8.15625 -19.734375 C 7.84375 -20.054688 7.394531 -20.21875 6.8125 -20.21875 Z M 5.046875 -20.21875 "/></g></g></g><g fill="#000000" fill-opacity="1"><g transform="translate(322.651141, 154.881355)"><g><path d="M 6.8125 -23.578125 C 8.664062 -23.578125 10.046875 -23.082031 10.953125 -22.09375 C 11.867188 -21.101562 12.328125 -19.65625 12.328125 -17.75 L 12.328125 -14.6875 C 12.328125 -12.78125 11.867188 -11.332031 10.953125 -10.34375 C 10.046875 -9.351562 8.664062 -8.859375 6.8125 -8.859375 L 5.046875 -8.859375 L 5.046875 0 L 1.34375 0 L 1.34375 -23.578125 Z M 5.046875 -20.21875 L 5.046875 -12.234375 L 6.8125 -12.234375 C 7.394531 -12.234375 7.84375 -12.390625 8.15625 -12.703125 C 8.46875 -13.015625 8.625 -13.597656 8.625 -14.453125 L 8.625 -17.984375 C 8.625 -18.835938 8.46875 -19.421875 8.15625 -19.734375 C 7.84375 -20.054688 7.394531 -20.21875 6.8125 -20.21875 Z M 5.046875 -20.21875 "/></g></g></g><g clip-path="url(#8365cade7d)"><path fill="#003eb6" d="M 586.21875 100.882812 C 591.734375 103.597656 597.132812 106.730469 602.855469 108.996094 C 612.164062 112.660156 616.816406 118.753906 616.304688 129.113281 C 615.128906 153.226562 617.992188 176.886719 626.125 199.703125 C 629.277344 208.539062 633.023438 217.167969 637.039062 225.648438 C 638.832031 229.4375 641.941406 232.589844 644.433594 236.050781 C 645.566406 237.636719 646.636719 239.261719 648.589844 242.125 C 635.84375 243.152344 626.207031 238.851562 618.875 231.621094 C 611.753906 224.601562 606.6875 215.519531 600.21875 206.644531 C 599.230469 209.257812 598.015625 211.832031 597.277344 214.53125 C 585.476562 256.703125 573.613281 298.855469 562.019531 341.070312 C 556.832031 359.972656 552.15625 379.042969 543.46875 396.773438 C 541.695312 400.398438 539.78125 403.9375 537.96875 407.523438 C 533.933594 415.59375 527.160156 419.464844 518.40625 419.21875 C 505.742188 418.867188 493.882812 416.148438 485.375 405.484375 C 471.640625 388.269531 457.84375 371.113281 444.070312 353.941406 C 442.277344 351.714844 440.609375 349.390625 438.199219 346.21875 C 434.453125 351.367188 430.808594 355.382812 428.316406 360.015625 C 420.675781 374.183594 413.425781 388.578125 406.117188 402.929688 C 403.5625 407.953125 401.296875 413.125 398.828125 418.210938 C 396.664062 422.679688 393.535156 425.476562 388.058594 424.738281 C 383.054688 424.058594 377.988281 423.789062 372.941406 423.359375 C 365.671875 422.738281 361.492188 418.085938 358.320312 412.132812 C 350.804688 398.070312 345 383.285156 341.867188 367.71875 C 338.554688 351.160156 336.371094 334.355469 333.734375 317.65625 C 333.445312 315.804688 333.40625 313.910156 333.445312 312.035156 C 333.527344 306.535156 334.476562 305.40625 340.179688 305.734375 C 344.402344 305.980469 348.644531 306.824219 352.761719 307.855469 C 356.511719 308.78125 356.902344 312.136719 357.582031 315.433594 C 361.082031 332.792969 364.4375 350.171875 368.578125 367.386719 C 370.945312 377.230469 374.714844 386.746094 378.441406 398.195312 C 380.5625 394.179688 381.757812 391.871094 382.972656 389.585938 C 389.375 377.5 395.46875 365.203125 402.328125 353.382812 C 405.808594 347.414062 410.421875 342.019531 414.992188 336.789062 C 419.871094 331.1875 426.316406 329.394531 433.835938 329.621094 C 446.808594 330.011719 456.835938 335.015625 464.929688 345.332031 C 477.511719 361.394531 490.773438 376.941406 503.765625 392.695312 C 505.453125 394.753906 507.308594 396.667969 509.574219 399.203125 C 515.605469 389.007812 520.320312 378.796875 523.121094 367.964844 C 528.640625 346.671875 533.273438 325.152344 538.566406 303.777344 C 550.058594 257.382812 562.351562 211.214844 577.28125 165.789062 C 578.1875 163.050781 578.886719 160.269531 578.660156 156.871094 C 576.929688 158.703125 575.097656 160.453125 573.511719 162.410156 C 566.40625 171.183594 559.386719 180.019531 552.28125 188.789062 C 547.03125 195.257812 544.828125 195.976562 537.0625 192.601562 C 533.273438 190.953125 529.960938 188.253906 526.066406 185.824219 C 541.285156 155.347656 565.5 132.304688 581.953125 103.96875 C 582.71875 102.734375 584.488281 102.117188 586.21875 100.882812 Z M 586.21875 100.882812 " fill-opacity="1" fill-rule="nonzero"/></g><g fill="#000000" fill-opacity="1"><g transform="translate(439.227964, 608.003965)"><g><path d="M 11.148438 0 L 11.148438 -1.511719 L 3.375 -1.511719 L 3.375 -7.144531 L 10.914062 -7.144531 L 10.914062 -8.679688 L 3.375 -8.679688 L 3.375 -14.3125 L 11.148438 -14.3125 L 11.148438 -15.824219 L 1.746094 -15.824219 L 1.746094 0 Z M 11.148438 0 "/></g></g></g><g fill="#000000" fill-opacity="1"><g transform="translate(460.681227, 608.003965)"><g><path d="M 3.375 -1.628906 L 3.375 -15.824219 L 1.746094 -15.824219 L 1.746094 0 L 9.03125 0 L 9.03125 -1.628906 Z M 3.375 -1.628906 "/></g></g></g><g fill="#000000" fill-opacity="1"><g transform="translate(478.738274, 608.003965)"><g><path d="M 11.148438 0 L 11.148438 -1.511719 L 3.375 -1.511719 L 3.375 -7.144531 L 10.914062 -7.144531 L 10.914062 -8.679688 L 3.375 -8.679688 L 3.375 -14.3125 L 11.148438 -14.3125 L 11.148438 -15.824219 L 1.746094 -15.824219 L 1.746094 0 Z M 11.148438 0 "/></g></g></g><g fill="#000000" fill-opacity="1"><g transform="translate(500.191536, 608.003965)"><g><path d="M 7.425781 0.953125 L 14.59375 -15.824219 L 12.824219 -15.824219 L 7.425781 -3.070312 L 2 -15.824219 L 0.234375 -15.824219 Z M 7.425781 0.953125 "/></g></g></g><g fill="#000000" fill-opacity="1"><g transform="translate(523.575522, 608.003965)"><g><path d="M 4.304688 -5.816406 L 7.191406 -13.101562 L 10.054688 -5.816406 Z M 14.125 0 L 7.191406 -16.917969 L 0.234375 0 L 2 0 L 3.699219 -4.304688 L 10.660156 -4.304688 L 12.359375 0 Z M 14.125 0 "/></g></g></g><g fill="#000000" fill-opacity="1"><g transform="translate(546.494266, 608.003965)"><g><path d="M 0.464844 -14.359375 L 4.304688 -14.359375 L 4.304688 -0.046875 L 5.933594 -0.046875 L 5.933594 -14.359375 L 9.773438 -14.359375 L 9.773438 -15.871094 L 0.464844 -15.871094 Z M 0.464844 -14.359375 "/></g></g></g><g fill="#000000" fill-opacity="1"><g transform="translate(565.295695, 608.003965)"><g><path d="M 11.148438 0 L 11.148438 -1.511719 L 3.375 -1.511719 L 3.375 -7.144531 L 10.914062 -7.144531 L 10.914062 -8.679688 L 3.375 -8.679688 L 3.375 -14.3125 L 11.148438 -14.3125 L 11.148438 -15.824219 L 1.746094 -15.824219 L 1.746094 0 Z M 11.148438 0 "/></g></g></g><g fill="#000000" fill-opacity="1"><g transform="translate(586.74896, 608.003965)"><g/></g></g><g fill="#000000" fill-opacity="1"><g transform="translate(601.595895, 608.003965)"><g><path d="M 7.867188 -7.445312 L 13.847656 -15.824219 L 11.777344 -15.824219 L 7.050781 -9.054688 L 2.328125 -15.824219 L 0.234375 -15.824219 L 6.238281 -7.425781 L 6.238281 0 L 7.867188 0 Z M 7.867188 -7.445312 "/></g></g></g><g fill="#000000" fill-opacity="1"><g transform="translate(624.235512, 608.003965)"><g><path d="M 15.6875 -7.960938 C 15.6875 -6.144531 15.035156 -4.609375 13.777344 -3.351562 C 12.496094 -2.070312 10.960938 -1.441406 9.167969 -1.441406 C 7.378906 -1.441406 5.839844 -2.070312 4.585938 -3.351562 C 3.304688 -4.609375 2.675781 -6.144531 2.675781 -7.960938 C 2.675781 -9.726562 3.304688 -11.265625 4.585938 -12.542969 C 5.839844 -13.800781 7.378906 -14.453125 9.167969 -14.453125 C 10.960938 -14.453125 12.496094 -13.800781 13.777344 -12.542969 C 15.035156 -11.265625 15.6875 -9.726562 15.6875 -7.960938 Z M 17.316406 -7.960938 C 17.316406 -9.078125 17.082031 -10.125 16.664062 -11.125 C 16.246094 -12.101562 15.664062 -12.960938 14.917969 -13.707031 C 14.171875 -14.429688 13.3125 -15.011719 12.335938 -15.429688 C 11.332031 -15.847656 10.285156 -16.082031 9.167969 -16.082031 C 8.050781 -16.082031 6.980469 -15.847656 6.003906 -15.429688 C 5.027344 -15.011719 4.164062 -14.429688 3.421875 -13.707031 C 2.675781 -12.960938 2.09375 -12.101562 1.675781 -11.125 C 1.257812 -10.125 1.046875 -9.078125 1.046875 -7.960938 C 1.046875 -6.84375 1.257812 -5.773438 1.675781 -4.792969 C 2.09375 -3.792969 2.675781 -2.933594 3.421875 -2.1875 C 4.164062 -1.441406 5.027344 -0.859375 6.003906 -0.441406 C 6.980469 -0.0234375 8.050781 0.1875 9.167969 0.1875 C 10.285156 0.1875 11.332031 -0.0234375 12.335938 -0.441406 C 13.3125 -0.859375 14.171875 -1.441406 14.917969 -2.1875 C 15.664062 -2.933594 16.246094 -3.792969 16.664062 -4.792969 C 17.082031 -5.773438 17.316406 -6.84375 17.316406 -7.960938 Z M 17.316406 -7.960938 "/></g></g></g><g fill="#000000" fill-opacity="1"><g transform="translate(651.155276, 608.003965)"><g><path d="M 13.195312 -5.234375 L 13.195312 -15.824219 L 11.566406 -15.824219 L 11.566406 -5.003906 C 11.566406 -4.351562 11.449219 -3.816406 11.21875 -3.375 C 10.542969 -2.070312 9.238281 -1.417969 7.308594 -1.417969 C 6.050781 -1.417969 5.050781 -1.699219 4.304688 -2.257812 C 3.445312 -2.886719 3.027344 -3.792969 3.027344 -5.003906 L 3.027344 -15.824219 L 1.394531 -15.824219 L 1.394531 -5.234375 C 1.394531 -3.515625 1.953125 -2.164062 3.070312 -1.1875 C 4.121094 -0.257812 5.539062 0.210938 7.308594 0.210938 C 9.054688 0.210938 10.449219 -0.257812 11.519531 -1.1875 C 12.636719 -2.164062 13.195312 -3.515625 13.195312 -5.234375 Z M 13.195312 -5.234375 "/></g></g></g><g fill="#000000" fill-opacity="1"><g transform="translate(674.30665, 608.003965)"><g><path d="M 3.375 -7.820312 L 3.375 -14.265625 L 7.050781 -14.265625 C 8.003906 -14.265625 8.773438 -13.964844 9.355469 -13.359375 C 9.914062 -12.753906 10.214844 -12.007812 10.214844 -11.078125 C 10.214844 -10.148438 9.914062 -9.378906 9.308594 -8.75 C 8.703125 -8.121094 7.960938 -7.820312 7.050781 -7.820312 Z M 11.84375 -11.054688 C 11.84375 -12.402344 11.332031 -13.566406 10.355469 -14.476562 C 9.402344 -15.359375 8.214844 -15.824219 6.820312 -15.824219 L 1.746094 -15.824219 L 1.746094 0 L 3.375 0 L 3.375 -6.261719 L 5.257812 -6.261719 L 9.914062 0 L 12.101562 0 L 7.214844 -6.261719 C 8.449219 -6.332031 9.496094 -6.773438 10.355469 -7.585938 C 11.332031 -8.496094 11.84375 -9.65625 11.84375 -11.054688 Z M 11.84375 -11.054688 "/></g></g></g><g fill="#000000" fill-opacity="1"><g transform="translate(695.527291, 608.003965)"><g/></g></g><g fill="#000000" fill-opacity="1"><g transform="translate(710.374213, 608.003965)"><g><path d="M 3.375 -1.628906 L 3.375 -15.824219 L 1.746094 -15.824219 L 1.746094 0 L 9.03125 0 L 9.03125 -1.628906 Z M 3.375 -1.628906 "/></g></g></g><g fill="#000000" fill-opacity="1"><g transform="translate(728.43125, 608.003965)"><g><path d="M 4.304688 -5.816406 L 7.191406 -13.101562 L 10.054688 -5.816406 Z M 14.125 0 L 7.191406 -16.917969 L 0.234375 0 L 2 0 L 3.699219 -4.304688 L 10.660156 -4.304688 L 12.359375 0 Z M 14.125 0 "/></g></g></g><g fill="#000000" fill-opacity="1"><g transform="translate(751.349988, 608.003965)"><g><path d="M 3.375 -11.660156 L 12.265625 0.976562 L 12.265625 -15.824219 L 10.636719 -15.824219 L 10.636719 -4.1875 L 1.746094 -16.824219 L 1.746094 0 L 3.375 0 Z M 3.375 -11.660156 "/></g></g></g><g fill="#000000" fill-opacity="1"><g transform="translate(773.919819, 608.003965)"><g><path d="M 17.359375 -7.402344 L 9.121094 -7.402344 L 9.121094 -5.980469 L 15.546875 -5.980469 C 15.058594 -4.609375 14.242188 -3.492188 13.078125 -2.675781 C 11.914062 -1.839844 10.613281 -1.441406 9.191406 -1.441406 C 7.378906 -1.441406 5.839844 -2.070312 4.5625 -3.351562 C 3.304688 -4.632812 2.675781 -6.191406 2.675781 -7.984375 C 2.675781 -9.773438 3.304688 -11.308594 4.585938 -12.589844 C 5.839844 -13.847656 7.378906 -14.5 9.191406 -14.5 C 10.542969 -14.5 11.777344 -14.101562 12.871094 -13.335938 C 13.988281 -12.566406 14.777344 -11.566406 15.289062 -10.285156 L 17.011719 -10.285156 C 16.476562 -12.03125 15.476562 -13.429688 14.035156 -14.5 C 12.589844 -15.570312 10.914062 -16.128906 9.03125 -16.128906 C 8.003906 -16.128906 7.003906 -15.894531 6.027344 -15.476562 C 5.027344 -15.058594 4.164062 -14.476562 3.421875 -13.730469 C 2.675781 -12.984375 2.09375 -12.125 1.675781 -11.148438 C 1.257812 -10.148438 1.046875 -9.078125 1.046875 -7.960938 C 1.046875 -6.84375 1.257812 -5.773438 1.675781 -4.792969 C 2.09375 -3.792969 2.675781 -2.933594 3.421875 -2.1875 C 4.164062 -1.441406 5.027344 -0.859375 6.027344 -0.441406 C 7.003906 -0.0234375 8.074219 0.1875 9.191406 0.1875 C 11.101562 0.1875 12.824219 -0.417969 14.359375 -1.652344 C 15.894531 -2.910156 16.847656 -4.492188 17.199219 -6.421875 Z M 17.359375 -7.402344 "/></g></g></g><g fill="#000000" fill-opacity="1"><g transform="translate(800.886103, 608.003965)"><g><path d="M 13.195312 -5.234375 L 13.195312 -15.824219 L 11.566406 -15.824219 L 11.566406 -5.003906 C 11.566406 -4.351562 11.449219 -3.816406 11.21875 -3.375 C 10.542969 -2.070312 9.238281 -1.417969 7.308594 -1.417969 C 6.050781 -1.417969 5.050781 -1.699219 4.304688 -2.257812 C 3.445312 -2.886719 3.027344 -3.792969 3.027344 -5.003906 L 3.027344 -15.824219 L 1.394531 -15.824219 L 1.394531 -5.234375 C 1.394531 -3.515625 1.953125 -2.164062 3.070312 -1.1875 C 4.121094 -0.257812 5.539062 0.210938 7.308594 0.210938 C 9.054688 0.210938 10.449219 -0.257812 11.519531 -1.1875 C 12.636719 -2.164062 13.195312 -3.515625 13.195312 -5.234375 Z M 13.195312 -5.234375 "/></g></g></g><g fill="#000000" fill-opacity="1"><g transform="translate(824.037454, 608.003965)"><g><path d="M 4.304688 -5.816406 L 7.191406 -13.101562 L 10.054688 -5.816406 Z M 14.125 0 L 7.191406 -16.917969 L 0.234375 0 L 2 0 L 3.699219 -4.304688 L 10.660156 -4.304688 L 12.359375 0 Z M 14.125 0 "/></g></g></g><g fill="#000000" fill-opacity="1"><g transform="translate(846.956215, 608.003965)"><g><path d="M 17.359375 -7.402344 L 9.121094 -7.402344 L 9.121094 -5.980469 L 15.546875 -5.980469 C 15.058594 -4.609375 14.242188 -3.492188 13.078125 -2.675781 C 11.914062 -1.839844 10.613281 -1.441406 9.191406 -1.441406 C 7.378906 -1.441406 5.839844 -2.070312 4.5625 -3.351562 C 3.304688 -4.632812 2.675781 -6.191406 2.675781 -7.984375 C 2.675781 -9.773438 3.304688 -11.308594 4.585938 -12.589844 C 5.839844 -13.847656 7.378906 -14.5 9.191406 -14.5 C 10.542969 -14.5 11.777344 -14.101562 12.871094 -13.335938 C 13.988281 -12.566406 14.777344 -11.566406 15.289062 -10.285156 L 17.011719 -10.285156 C 16.476562 -12.03125 15.476562 -13.429688 14.035156 -14.5 C 12.589844 -15.570312 10.914062 -16.128906 9.03125 -16.128906 C 8.003906 -16.128906 7.003906 -15.894531 6.027344 -15.476562 C 5.027344 -15.058594 4.164062 -14.476562 3.421875 -13.730469 C 2.675781 -12.984375 2.09375 -12.125 1.675781 -11.148438 C 1.257812 -10.148438 1.046875 -9.078125 1.046875 -7.960938 C 1.046875 -6.84375 1.257812 -5.773438 1.675781 -4.792969 C 2.09375 -3.792969 2.675781 -2.933594 3.421875 -2.1875 C 4.164062 -1.441406 5.027344 -0.859375 6.027344 -0.441406 C 7.003906 -0.0234375 8.074219 0.1875 9.191406 0.1875 C 11.101562 0.1875 12.824219 -0.417969 14.359375 -1.652344 C 15.894531 -2.910156 16.847656 -4.492188 17.199219 -6.421875 Z M 17.359375 -7.402344 "/></g></g></g><g fill="#000000" fill-opacity="1"><g transform="translate(873.922522, 608.003965)"><g><path d="M 11.148438 0 L 11.148438 -1.511719 L 3.375 -1.511719 L 3.375 -7.144531 L 10.914062 -7.144531 L 10.914062 -8.679688 L 3.375 -8.679688 L 3.375 -14.3125 L 11.148438 -14.3125 L 11.148438 -15.824219 L 1.746094 -15.824219 L 1.746094 0 Z M 11.148438 0 "/></g></g></g><g fill="#000000" fill-opacity="1"><g transform="translate(895.375799, 608.003965)"><g/></g></g><g fill="#000000" fill-opacity="1"><g transform="translate(910.222722, 608.003965)"><g><path d="M 6.121094 -7.445312 C 8.167969 -6.957031 9.566406 -6.421875 10.308594 -5.816406 C 10.820312 -5.398438 11.078125 -4.863281 11.078125 -4.210938 C 11.078125 -3.5625 10.9375 -3.027344 10.660156 -2.652344 C 9.960938 -1.675781 8.703125 -1.1875 6.933594 -1.1875 C 4.46875 -1.1875 3.070312 -2.023438 2.769531 -3.699219 L 0.859375 -3.699219 C 1.417969 -1.023438 3.445312 0.300781 6.933594 0.300781 C 8.496094 0.300781 9.796875 -0.0234375 10.84375 -0.722656 C 12.101562 -1.535156 12.753906 -2.746094 12.753906 -4.328125 C 12.753906 -5.632812 12.242188 -6.632812 11.21875 -7.332031 C 10.496094 -7.84375 9.332031 -8.308594 7.726562 -8.726562 C 6.097656 -9.144531 5.050781 -9.496094 4.5625 -9.75 C 3.492188 -10.285156 2.957031 -11.03125 2.980469 -12.007812 C 2.980469 -12.519531 3.070312 -12.960938 3.304688 -13.289062 C 3.910156 -14.195312 4.980469 -14.660156 6.515625 -14.660156 C 8.679688 -14.660156 9.914062 -13.964844 10.238281 -12.613281 L 12.007812 -12.613281 C 11.425781 -14.894531 9.589844 -16.058594 6.515625 -16.058594 C 5.121094 -16.058594 3.886719 -15.6875 2.863281 -14.941406 C 1.816406 -14.195312 1.28125 -13.101562 1.28125 -11.613281 C 1.28125 -9.589844 2.910156 -8.191406 6.121094 -7.445312 Z M 6.121094 -7.445312 "/></g></g></g><g fill="#000000" fill-opacity="1"><g transform="translate(932.141223, 608.003965)"><g><path d="M 3.375 0 L 3.375 -7.425781 L 8.703125 0 L 10.796875 0 L 4.980469 -7.914062 L 10.796875 -15.824219 L 8.703125 -15.824219 L 3.375 -8.378906 L 3.375 -15.824219 L 1.746094 -15.824219 L 1.746094 0 Z M 3.375 0 "/></g></g></g><g fill="#000000" fill-opacity="1"><g transform="translate(951.733553, 608.003965)"><g><path d="M 3.375 0 L 3.375 -15.824219 L 1.746094 -15.824219 L 1.746094 0 Z M 3.375 0 "/></g></g></g><g fill="#000000" fill-opacity="1"><g transform="translate(965.41739, 608.003965)"><g><path d="M 3.375 -1.628906 L 3.375 -15.824219 L 1.746094 -15.824219 L 1.746094 0 L 9.03125 0 L 9.03125 -1.628906 Z M 3.375 -1.628906 "/></g></g></g><g fill="#000000" fill-opacity="1"><g transform="translate(983.474427, 608.003965)"><g><path d="M 3.375 -1.628906 L 3.375 -15.824219 L 1.746094 -15.824219 L 1.746094 0 L 9.03125 0 L 9.03125 -1.628906 Z M 3.375 -1.628906 "/></g></g></g><g fill="#000000" fill-opacity="1"><g transform="translate(1001.531463, 608.003965)"><g><path d="M 6.121094 -7.445312 C 8.167969 -6.957031 9.566406 -6.421875 10.308594 -5.816406 C 10.820312 -5.398438 11.078125 -4.863281 11.078125 -4.210938 C 11.078125 -3.5625 10.9375 -3.027344 10.660156 -2.652344 C 9.960938 -1.675781 8.703125 -1.1875 6.933594 -1.1875 C 4.46875 -1.1875 3.070312 -2.023438 2.769531 -3.699219 L 0.859375 -3.699219 C 1.417969 -1.023438 3.445312 0.300781 6.933594 0.300781 C 8.496094 0.300781 9.796875 -0.0234375 10.84375 -0.722656 C 12.101562 -1.535156 12.753906 -2.746094 12.753906 -4.328125 C 12.753906 -5.632812 12.242188 -6.632812 11.21875 -7.332031 C 10.496094 -7.84375 9.332031 -8.308594 7.726562 -8.726562 C 6.097656 -9.144531 5.050781 -9.496094 4.5625 -9.75 C 3.492188 -10.285156 2.957031 -11.03125 2.980469 -12.007812 C 2.980469 -12.519531 3.070312 -12.960938 3.304688 -13.289062 C 3.910156 -14.195312 4.980469 -14.660156 6.515625 -14.660156 C 8.679688 -14.660156 9.914062 -13.964844 10.238281 -12.613281 L 12.007812 -12.613281 C 11.425781 -14.894531 9.589844 -16.058594 6.515625 -16.058594 C 5.121094 -16.058594 3.886719 -15.6875 2.863281 -14.941406 C 1.816406 -14.195312 1.28125 -13.101562 1.28125 -11.613281 C 1.28125 -9.589844 2.910156 -8.191406 6.121094 -7.445312 Z M 6.121094 -7.445312 "/></g></g></g></svg>