<svg xmlns="http://www.w3.org/2000/svg" xmlns:xlink="http://www.w3.org/1999/xlink" width="500" zoomAndPan="magnify" viewBox="0 0 375 374.999991" height="500" preserveAspectRatio="xMidYMid meet" version="1.0"><defs><g/><clipPath id="8db80d3549"><path d="M 165.105469 124.085938 L 181.296875 124.085938 L 181.296875 140.273438 L 165.105469 140.273438 Z M 165.105469 124.085938 " clip-rule="nonzero"/></clipPath><clipPath id="1e779950df"><path d="M 173.203125 124.085938 C 168.730469 124.085938 165.105469 127.707031 165.105469 132.179688 C 165.105469 136.648438 168.730469 140.273438 173.203125 140.273438 C 177.671875 140.273438 181.296875 136.648438 181.296875 132.179688 C 181.296875 127.707031 177.671875 124.085938 173.203125 124.085938 Z M 173.203125 124.085938 " clip-rule="nonzero"/></clipPath></defs><rect x="-37.5" width="450" fill="#ffffff" y="-37.499999" height="449.999989" fill-opacity="1"/><rect x="-37.5" width="450" fill="#fff7e6" y="-37.499999" height="449.999989" fill-opacity="1"/><g fill="#6e02ff" fill-opacity="1"><g transform="translate(39.053534, 233.764723)"><g><path d="M 7.277344 -24.496094 C 7.277344 -8.851562 18.675781 2.425781 34.320312 2.425781 C 55.542969 2.425781 63.546875 -14.917969 67.910156 -35.773438 L 67.910156 -15.039062 C 67.910156 -5.941406 73.003906 0 79.433594 0 L 88.042969 0 L 88.042969 -1.210938 C 84.769531 -1.210938 78.828125 -3.394531 78.828125 -13.582031 C 78.828125 -26.4375 78.703125 -28.257812 78.703125 -39.050781 C 78.703125 -48.75 77.613281 -57.96875 68.761719 -57.96875 C 66.820312 -57.96875 65.488281 -56.996094 65.488281 -56.269531 C 67.304688 -55.785156 67.546875 -52.996094 67.546875 -50.328125 C 67.546875 -15.039062 50.933594 -1.578125 37.835938 -1.578125 C 25.953125 -1.578125 17.949219 -11.15625 17.949219 -23.769531 C 17.949219 -71.1875 78.949219 -53.480469 78.949219 -73.003906 C 78.949219 -82.585938 61.121094 -88.285156 47.417969 -88.285156 C 28.378906 -88.285156 14.066406 -82.101562 14.066406 -70.09375 C 14.066406 -64.878906 17.585938 -60.394531 22.800781 -60.394531 C 26.800781 -60.394531 30.804688 -63.789062 29.589844 -67.425781 C 28.5 -66.335938 24.738281 -68.398438 24.738281 -73.003906 C 24.738281 -83.070312 35.894531 -87.074219 47.417969 -87.074219 C 57.238281 -87.074219 68.640625 -83.070312 68.640625 -73.246094 C 68.640625 -53.238281 7.277344 -67.183594 7.277344 -24.496094 Z M 7.277344 -24.496094 "/></g></g></g><g fill="#6e02ff" fill-opacity="1"><g transform="translate(122.158929, 233.639946)"><g><path d="M 3.644531 0 L 36.429688 0 L 36.429688 -1.214844 C 25.984375 -1.214844 25.257812 -9.835938 25.257812 -33.757812 L 25.257812 -121.429688 L 3.644531 -121.429688 L 3.644531 -120.214844 C 14.085938 -120.214844 14.816406 -111.59375 14.816406 -87.671875 L 14.816406 -33.757812 C 14.816406 -9.835938 14.085938 -1.214844 3.644531 -1.214844 Z M 3.644531 0 "/></g></g></g><g fill="#6e02ff" fill-opacity="1"><g transform="translate(153.764148, 233.639946)"><g><path d="M 36.429688 0 L 36.429688 -1.214844 C 25.984375 -1.214844 25.257812 -9.835938 25.257812 -33.757812 L 25.257812 -85.972656 L 3.644531 -85.972656 L 3.644531 -84.757812 C 14.085938 -84.757812 14.816406 -76.136719 14.816406 -52.214844 L 14.816406 -33.757812 C 14.816406 -9.835938 14.085938 -1.214844 3.644531 -1.214844 L 3.644531 0 Z M 11.292969 -101.878906 C 11.292969 -97.386719 14.9375 -93.746094 19.429688 -93.746094 C 23.921875 -93.746094 27.566406 -97.386719 27.566406 -101.878906 C 27.566406 -106.375 23.921875 -110.015625 19.429688 -110.015625 C 14.9375 -110.015625 11.292969 -106.375 11.292969 -101.878906 Z M 11.292969 -101.878906 "/></g></g></g><g fill="#882741" fill-opacity="1"><g transform="translate(200.181949, 197.503812)"><g><path d="M 14.753906 -11.085938 C 16.339844 -12.035156 17.378906 -13.988281 17.378906 -15.914062 C 17.378906 -19.027344 14.84375 -21.382812 11.363281 -21.382812 L 2.902344 -21.382812 L 2.902344 0 L 11.453125 0 C 15.148438 0 17.929688 -2.566406 17.929688 -5.863281 C 17.929688 -8.214844 16.738281 -10.230469 14.753906 -11.085938 Z M 14.628906 -15.546875 C 14.628906 -13.777344 13.226562 -12.339844 11.300781 -12.339844 L 5.558594 -12.339844 L 5.558594 -18.753906 L 11.300781 -18.753906 C 13.164062 -18.753906 14.628906 -17.347656 14.628906 -15.546875 Z M 11.421875 -2.625 L 5.558594 -2.625 L 5.558594 -9.714844 L 11.453125 -9.714844 C 13.5625 -9.714844 15.179688 -8.1875 15.179688 -6.171875 C 15.179688 -4.125 13.5625 -2.625 11.421875 -2.625 Z M 11.421875 -2.625 "/></g></g></g><g fill="#882741" fill-opacity="1"><g transform="translate(225.071014, 197.503812)"><g><path d="M 15.363281 0 L 18.386719 0 L 13.257812 -8.675781 C 16.066406 -9.46875 17.992188 -11.820312 17.992188 -14.84375 C 17.992188 -18.632812 15.027344 -21.382812 11.027344 -21.382812 L 2.902344 -21.382812 L 2.902344 0 L 5.589844 0 L 5.589844 -8.339844 L 10.445312 -8.339844 Z M 5.589844 -18.816406 L 10.875 -18.816406 C 13.5 -18.816406 15.242188 -17.136719 15.242188 -14.84375 C 15.242188 -12.554688 13.5 -10.90625 10.875 -10.90625 L 5.589844 -10.90625 Z M 5.589844 -18.816406 "/></g></g></g><g fill="#882741" fill-opacity="1"><g transform="translate(249.929541, 197.503812)"><g><path d="M 17.839844 0 L 20.738281 0 L 11.757812 -21.382812 L 9.253906 -21.382812 L 0.519531 0 L 3.359375 0 L 5.4375 -5.101562 L 15.730469 -5.101562 Z M 10.539062 -17.683594 L 14.722656 -7.574219 L 6.445312 -7.574219 Z M 10.539062 -17.683594 "/></g></g></g><g fill="#882741" fill-opacity="1"><g transform="translate(276.406486, 197.503812)"><g><path d="M 5.589844 -2.566406 L 5.589844 -9.742188 L 14.203125 -9.742188 L 14.203125 -12.21875 L 5.589844 -12.21875 L 5.589844 -18.816406 L 14.996094 -18.816406 L 14.996094 -21.382812 L 2.902344 -21.382812 L 2.902344 0 L 15.332031 0 L 15.332031 -2.566406 Z M 5.589844 -2.566406 "/></g></g></g><g fill="#882741" fill-opacity="1"><g transform="translate(200.181949, 230.774982)"><g><path d="M 10.019531 -21.382812 L 2.902344 -21.382812 L 2.902344 0 L 10.019531 0 C 16.3125 0 20.863281 -4.488281 20.863281 -10.691406 C 20.863281 -16.859375 16.3125 -21.351562 10.019531 -21.351562 Z M 9.957031 -2.503906 L 5.589844 -2.503906 L 5.589844 -18.847656 L 9.957031 -18.847656 C 14.753906 -18.847656 18.144531 -15.394531 18.144531 -10.691406 C 18.144531 -5.957031 14.753906 -2.503906 9.957031 -2.503906 Z M 9.957031 -2.503906 "/></g></g></g><g fill="#882741" fill-opacity="1"><g transform="translate(227.758197, 230.774982)"><g><path d="M 5.589844 -2.566406 L 5.589844 -9.742188 L 14.203125 -9.742188 L 14.203125 -12.21875 L 5.589844 -12.21875 L 5.589844 -18.816406 L 14.996094 -18.816406 L 14.996094 -21.382812 L 2.902344 -21.382812 L 2.902344 0 L 15.332031 0 L 15.332031 -2.566406 Z M 5.589844 -2.566406 "/></g></g></g><g fill="#882741" fill-opacity="1"><g transform="translate(249.837939, 230.774982)"><g><path d="M 9.285156 0.273438 C 13.53125 0.273438 16.828125 -2.015625 16.828125 -6.046875 C 16.828125 -10.507812 13.042969 -11.394531 9.683594 -12.21875 C 6.933594 -12.859375 4.460938 -13.46875 4.460938 -15.792969 C 4.460938 -17.839844 6.414062 -19.058594 9.011719 -19.058594 C 11.605469 -19.058594 13.5625 -17.683594 13.5625 -15.304688 L 16.21875 -15.304688 C 16.21875 -19.183594 13.5 -21.625 9.070312 -21.625 C 4.644531 -21.625 1.800781 -19.394531 1.800781 -15.699219 C 1.800781 -11.421875 5.4375 -10.539062 8.734375 -9.773438 C 11.515625 -9.101562 14.050781 -8.523438 14.050781 -6.015625 C 14.050781 -3.757812 11.941406 -2.351562 9.253906 -2.351562 C 6.292969 -2.351562 4.125 -3.910156 4.125 -6.566406 L 1.375 -6.566406 C 1.375 -2.351562 4.582031 0.273438 9.285156 0.273438 Z M 9.285156 0.273438 "/></g></g></g><g fill="#882741" fill-opacity="1"><g transform="translate(273.261269, 230.774982)"><g><path d="M 2.902344 0 L 5.589844 0 L 5.589844 -21.382812 L 2.902344 -21.382812 Z M 2.902344 0 "/></g></g></g><g fill="#882741" fill-opacity="1"><g transform="translate(286.974086, 230.774982)"><g><path d="M 11.546875 -10.597656 L 11.546875 -8.0625 L 20.066406 -8.0625 C 19.304688 -4.582031 16.21875 -2.261719 12.308594 -2.261719 C 7.484375 -2.261719 4.183594 -5.710938 4.183594 -10.660156 C 4.183594 -15.578125 7.574219 -19.058594 12.308594 -19.058594 C 15.914062 -19.058594 18.96875 -17.011719 19.882812 -13.898438 L 22.664062 -13.898438 C 21.71875 -18.480469 17.378906 -21.6875 12.25 -21.6875 C 6.015625 -21.6875 1.464844 -17.011719 1.464844 -10.660156 C 1.464844 -4.308594 6.015625 0.367188 12.308594 0.367188 C 18.480469 0.367188 22.878906 -4.152344 23 -10.597656 Z M 11.546875 -10.597656 "/></g></g></g><g fill="#882741" fill-opacity="1"><g transform="translate(316.535191, 230.774982)"><g><path d="M 17.320312 -21.382812 L 17.320312 -4.886719 L 5.34375 -21.382812 L 2.902344 -21.382812 L 2.902344 0 L 5.527344 0 L 5.527344 -16.675781 L 17.683594 0 L 19.945312 0 L 19.945312 -21.382812 Z M 17.320312 -21.382812 "/></g></g></g><g clip-path="url(#8db80d3549)"><g clip-path="url(#1e779950df)"><path fill="#882741" d="M 165.105469 124.085938 L 181.296875 124.085938 L 181.296875 140.273438 L 165.105469 140.273438 Z M 165.105469 124.085938 " fill-opacity="1" fill-rule="nonzero"/></g></g></svg>