<svg xmlns="http://www.w3.org/2000/svg" xmlns:xlink="http://www.w3.org/1999/xlink" width="500" zoomAndPan="magnify" viewBox="0 0 375 374.999991" height="500" preserveAspectRatio="xMidYMid meet" version="1.0"><defs><g/><clipPath id="30d66c340e"><path d="M 259.628906 80.234375 L 286.636719 80.234375 L 286.636719 107.238281 L 259.628906 107.238281 Z M 259.628906 80.234375 " clip-rule="nonzero"/></clipPath><clipPath id="fb25c49d8c"><path d="M 273.132812 80.234375 C 265.675781 80.234375 259.628906 86.28125 259.628906 93.738281 C 259.628906 101.195312 265.675781 107.238281 273.132812 107.238281 C 280.589844 107.238281 286.636719 101.195312 286.636719 93.738281 C 286.636719 86.28125 280.589844 80.234375 273.132812 80.234375 Z M 273.132812 80.234375 " clip-rule="nonzero"/></clipPath></defs><g fill="#6e02ff" fill-opacity="1"><g transform="translate(49.363963, 263.189752)"><g><path d="M 12.136719 -40.863281 C 12.136719 -14.765625 31.152344 4.046875 57.25 4.046875 C 92.648438 4.046875 106 -24.882812 113.28125 -59.675781 L 113.28125 -25.082031 C 113.28125 -9.914062 121.777344 0 132.5 0 L 146.863281 0 L 146.863281 -2.023438 C 141.402344 -2.023438 131.488281 -5.664062 131.488281 -22.65625 C 131.488281 -44.097656 131.285156 -47.132812 131.285156 -65.136719 C 131.285156 -81.320312 129.464844 -96.695312 114.699219 -96.695312 C 111.460938 -96.695312 109.238281 -95.078125 109.238281 -93.863281 C 112.269531 -93.054688 112.675781 -88.402344 112.675781 -83.949219 C 112.675781 -25.082031 84.960938 -2.628906 63.113281 -2.628906 C 43.289062 -2.628906 29.9375 -18.609375 29.9375 -39.648438 C 29.9375 -118.746094 131.691406 -89.210938 131.691406 -121.777344 C 131.691406 -137.757812 101.953125 -147.265625 79.09375 -147.265625 C 47.335938 -147.265625 23.464844 -136.949219 23.464844 -116.921875 C 23.464844 -108.226562 29.332031 -100.742188 38.03125 -100.742188 C 44.707031 -100.742188 51.382812 -106.40625 49.359375 -112.472656 C 47.539062 -110.652344 41.265625 -114.089844 41.265625 -121.777344 C 41.265625 -138.570312 59.878906 -145.246094 79.09375 -145.246094 C 95.480469 -145.246094 114.496094 -138.570312 114.496094 -122.183594 C 114.496094 -88.804688 12.136719 -112.070312 12.136719 -40.863281 Z M 12.136719 -40.863281 "/></g></g></g><g fill="#6e02ff" fill-opacity="1"><g transform="translate(187.990493, 262.981677)"><g><path d="M 6.078125 0 L 60.765625 0 L 60.765625 -2.027344 C 43.347656 -2.027344 42.132812 -16.40625 42.132812 -56.3125 L 42.132812 -202.558594 L 6.078125 -202.558594 L 6.078125 -200.53125 C 23.496094 -200.53125 24.710938 -186.148438 24.710938 -146.246094 L 24.710938 -56.3125 C 24.710938 -16.40625 23.496094 -2.027344 6.078125 -2.027344 Z M 6.078125 0 "/></g></g></g><g fill="#6e02ff" fill-opacity="1"><g transform="translate(240.710573, 262.981677)"><g><path d="M 60.765625 0 L 60.765625 -2.027344 C 43.347656 -2.027344 42.132812 -16.40625 42.132812 -56.3125 L 42.132812 -143.410156 L 6.078125 -143.410156 L 6.078125 -141.382812 C 23.496094 -141.382812 24.710938 -127.003906 24.710938 -87.097656 L 24.710938 -56.3125 C 24.710938 -16.40625 23.496094 -2.027344 6.078125 -2.027344 L 6.078125 0 Z M 18.835938 -169.945312 C 18.835938 -162.449219 24.914062 -156.375 32.410156 -156.375 C 39.902344 -156.375 45.980469 -162.449219 45.980469 -169.945312 C 45.980469 -177.441406 39.902344 -183.515625 32.410156 -183.515625 C 24.914062 -183.515625 18.835938 -177.441406 18.835938 -169.945312 Z M 18.835938 -169.945312 "/></g></g></g><g fill="#882741" fill-opacity="1"><g transform="translate(75.775992, 301.161612)"><g><path d="M 13.730469 -10.320312 C 15.210938 -11.203125 16.175781 -13.019531 16.175781 -14.8125 C 16.175781 -17.710938 13.816406 -19.902344 10.578125 -19.902344 L 2.699219 -19.902344 L 2.699219 0 L 10.660156 0 C 14.101562 0 16.6875 -2.386719 16.6875 -5.457031 C 16.6875 -7.648438 15.582031 -9.523438 13.730469 -10.320312 Z M 13.617188 -14.472656 C 13.617188 -12.824219 12.3125 -11.484375 10.519531 -11.484375 L 5.175781 -11.484375 L 5.175781 -17.457031 L 10.519531 -17.457031 C 12.253906 -17.457031 13.617188 -16.148438 13.617188 -14.472656 Z M 10.632812 -2.445312 L 5.175781 -2.445312 L 5.175781 -9.042969 L 10.660156 -9.042969 C 12.625 -9.042969 14.128906 -7.621094 14.128906 -5.742188 C 14.128906 -3.839844 12.625 -2.445312 10.632812 -2.445312 Z M 10.632812 -2.445312 "/></g></g></g><g fill="#882741" fill-opacity="1"><g transform="translate(98.947635, 301.161612)"><g><path d="M 14.300781 0 L 17.117188 0 L 12.339844 -8.074219 C 14.953125 -8.8125 16.746094 -11.003906 16.746094 -13.816406 C 16.746094 -17.34375 13.988281 -19.902344 10.261719 -19.902344 L 2.699219 -19.902344 L 2.699219 0 L 5.203125 0 L 5.203125 -7.761719 L 9.722656 -7.761719 Z M 5.203125 -17.511719 L 10.121094 -17.511719 C 12.566406 -17.511719 14.1875 -15.949219 14.1875 -13.816406 C 14.1875 -11.683594 12.566406 -10.148438 10.121094 -10.148438 L 5.203125 -10.148438 Z M 5.203125 -17.511719 "/></g></g></g><g fill="#882741" fill-opacity="1"><g transform="translate(122.090851, 301.161612)"><g><path d="M 16.605469 0 L 19.304688 0 L 10.945312 -19.902344 L 8.613281 -19.902344 L 0.484375 0 L 3.128906 0 L 5.0625 -4.746094 L 14.640625 -4.746094 Z M 9.808594 -16.460938 L 13.703125 -7.050781 L 6 -7.050781 Z M 9.808594 -16.460938 "/></g></g></g><g fill="#882741" fill-opacity="1"><g transform="translate(146.740871, 301.161612)"><g><path d="M 5.203125 -2.386719 L 5.203125 -9.070312 L 13.21875 -9.070312 L 13.21875 -11.371094 L 5.203125 -11.371094 L 5.203125 -17.511719 L 13.960938 -17.511719 L 13.960938 -19.902344 L 2.699219 -19.902344 L 2.699219 0 L 14.273438 0 L 14.273438 -2.386719 Z M 5.203125 -2.386719 "/></g></g></g><g fill="#882741" fill-opacity="1"><g transform="translate(167.29694, 301.161612)"><g/></g></g><g fill="#882741" fill-opacity="1"><g transform="translate(179.57982, 301.161612)"><g><path d="M 9.324219 -19.902344 L 2.699219 -19.902344 L 2.699219 0 L 9.324219 0 C 15.183594 0 19.417969 -4.179688 19.417969 -9.949219 C 19.417969 -15.695312 15.183594 -19.875 9.324219 -19.875 Z M 9.269531 -2.332031 L 5.203125 -2.332031 L 5.203125 -17.542969 L 9.269531 -17.542969 C 13.730469 -17.542969 16.886719 -14.328125 16.886719 -9.949219 C 16.886719 -5.542969 13.730469 -2.332031 9.269531 -2.332031 Z M 9.269531 -2.332031 "/></g></g></g><g fill="#882741" fill-opacity="1"><g transform="translate(205.253305, 301.161612)"><g><path d="M 5.203125 -2.386719 L 5.203125 -9.070312 L 13.21875 -9.070312 L 13.21875 -11.371094 L 5.203125 -11.371094 L 5.203125 -17.511719 L 13.960938 -17.511719 L 13.960938 -19.902344 L 2.699219 -19.902344 L 2.699219 0 L 14.273438 0 L 14.273438 -2.386719 Z M 5.203125 -2.386719 "/></g></g></g><g fill="#882741" fill-opacity="1"><g transform="translate(225.809375, 301.161612)"><g><path d="M 8.644531 0.257812 C 12.59375 0.257812 15.664062 -1.875 15.664062 -5.628906 C 15.664062 -9.78125 12.140625 -10.605469 9.011719 -11.371094 C 6.453125 -11.96875 4.152344 -12.539062 4.152344 -14.699219 C 4.152344 -16.605469 5.96875 -17.742188 8.386719 -17.742188 C 10.804688 -17.742188 12.625 -16.460938 12.625 -14.242188 L 15.097656 -14.242188 C 15.097656 -17.855469 12.566406 -20.128906 8.445312 -20.128906 C 4.320312 -20.128906 1.675781 -18.054688 1.675781 -14.613281 C 1.675781 -10.632812 5.0625 -9.808594 8.132812 -9.097656 C 10.71875 -8.472656 13.078125 -7.933594 13.078125 -5.601562 C 13.078125 -3.496094 11.117188 -2.1875 8.613281 -2.1875 C 5.855469 -2.1875 3.839844 -3.640625 3.839844 -6.113281 L 1.28125 -6.113281 C 1.28125 -2.1875 4.265625 0.257812 8.644531 0.257812 Z M 8.644531 0.257812 "/></g></g></g><g fill="#882741" fill-opacity="1"><g transform="translate(247.616377, 301.161612)"><g><path d="M 2.699219 0 L 5.203125 0 L 5.203125 -19.902344 L 2.699219 -19.902344 Z M 2.699219 0 "/></g></g></g><g fill="#882741" fill-opacity="1"><g transform="translate(260.382565, 301.161612)"><g><path d="M 10.746094 -9.867188 L 10.746094 -7.503906 L 18.679688 -7.503906 C 17.96875 -4.265625 15.097656 -2.105469 11.457031 -2.105469 C 6.964844 -2.105469 3.894531 -5.316406 3.894531 -9.921875 C 3.894531 -14.5 7.050781 -17.742188 11.457031 -17.742188 C 14.8125 -17.742188 17.65625 -15.835938 18.507812 -12.9375 L 21.097656 -12.9375 C 20.214844 -17.199219 16.175781 -20.1875 11.402344 -20.1875 C 5.601562 -20.1875 1.363281 -15.835938 1.363281 -9.921875 C 1.363281 -4.007812 5.601562 0.339844 11.457031 0.339844 C 17.199219 0.339844 21.292969 -3.867188 21.410156 -9.867188 Z M 10.746094 -9.867188 "/></g></g></g><g fill="#882741" fill-opacity="1"><g transform="translate(287.904029, 301.161612)"><g><path d="M 16.121094 -19.902344 L 16.121094 -4.550781 L 4.976562 -19.902344 L 2.699219 -19.902344 L 2.699219 0 L 5.144531 0 L 5.144531 -15.523438 L 16.460938 0 L 18.566406 0 L 18.566406 -19.902344 Z M 16.121094 -19.902344 "/></g></g></g><g clip-path="url(#30d66c340e)"><g clip-path="url(#fb25c49d8c)"><path fill="#882741" d="M 259.628906 80.234375 L 286.636719 80.234375 L 286.636719 107.238281 L 259.628906 107.238281 Z M 259.628906 80.234375 " fill-opacity="1" fill-rule="nonzero"/></g></g></svg>