<svg xmlns="http://www.w3.org/2000/svg" xmlns:xlink="http://www.w3.org/1999/xlink" width="500" zoomAndPan="magnify" viewBox="0 0 375 187.499995" height="250" preserveAspectRatio="xMidYMid meet" version="1.0"><defs><g/><clipPath id="be8b5be031"><path d="M 154.597656 29.84375 L 174.148438 29.84375 L 174.148438 49.394531 L 154.597656 49.394531 Z M 154.597656 29.84375 " clip-rule="nonzero"/></clipPath><clipPath id="c307f948b5"><path d="M 164.375 29.84375 C 158.976562 29.84375 154.597656 34.21875 154.597656 39.621094 C 154.597656 45.019531 158.976562 49.394531 164.375 49.394531 C 169.773438 49.394531 174.148438 45.019531 174.148438 39.621094 C 174.148438 34.21875 169.773438 29.84375 164.375 29.84375 Z M 164.375 29.84375 " clip-rule="nonzero"/></clipPath></defs><g fill="#6e02ff" fill-opacity="1"><g transform="translate(2.374754, 162.29624)"><g><path d="M 8.785156 -29.582031 C 8.785156 -10.691406 22.554688 2.929688 41.445312 2.929688 C 67.074219 2.929688 76.738281 -18.011719 82.011719 -43.203125 L 82.011719 -18.160156 C 82.011719 -7.175781 88.164062 0 95.925781 0 L 106.324219 0 L 106.324219 -1.464844 C 102.367188 -1.464844 95.191406 -4.101562 95.191406 -16.402344 C 95.191406 -31.925781 95.046875 -34.121094 95.046875 -47.15625 C 95.046875 -58.871094 93.726562 -70.003906 83.035156 -70.003906 C 80.695312 -70.003906 79.082031 -68.832031 79.082031 -67.953125 C 81.28125 -67.367188 81.574219 -64 81.574219 -60.777344 C 81.574219 -18.160156 61.507812 -1.902344 45.691406 -1.902344 C 31.339844 -1.902344 21.675781 -13.472656 21.675781 -28.703125 C 21.675781 -85.964844 95.339844 -64.585938 95.339844 -88.164062 C 95.339844 -99.730469 73.8125 -106.617188 57.261719 -106.617188 C 34.269531 -106.617188 16.988281 -99.144531 16.988281 -84.648438 C 16.988281 -78.351562 21.234375 -72.933594 27.53125 -72.933594 C 32.367188 -72.933594 37.199219 -77.03125 35.734375 -81.425781 C 34.414062 -80.109375 29.875 -82.597656 29.875 -88.164062 C 29.875 -100.316406 43.347656 -105.152344 57.261719 -105.152344 C 69.125 -105.152344 82.890625 -100.316406 82.890625 -88.457031 C 82.890625 -64.292969 8.785156 -81.132812 8.785156 -29.582031 Z M 8.785156 -29.582031 "/></g></g></g><g fill="#6e02ff" fill-opacity="1"><g transform="translate(102.734603, 162.145589)"><g><path d="M 4.398438 0 L 43.992188 0 L 43.992188 -1.464844 C 31.382812 -1.464844 30.5 -11.878906 30.5 -40.765625 L 30.5 -146.644531 L 4.398438 -146.644531 L 4.398438 -145.175781 C 17.011719 -145.175781 17.890625 -134.765625 17.890625 -105.875 L 17.890625 -40.765625 C 17.890625 -11.878906 17.011719 -1.464844 4.398438 -1.464844 Z M 4.398438 0 "/></g></g></g><g fill="#6e02ff" fill-opacity="1"><g transform="translate(140.901745, 162.145589)"><g><path d="M 43.992188 0 L 43.992188 -1.464844 C 31.382812 -1.464844 30.5 -11.878906 30.5 -40.765625 L 30.5 -103.824219 L 4.398438 -103.824219 L 4.398438 -102.355469 C 17.011719 -102.355469 17.890625 -91.945312 17.890625 -63.054688 L 17.890625 -40.765625 C 17.890625 -11.878906 17.011719 -1.464844 4.398438 -1.464844 L 4.398438 0 Z M 13.636719 -123.03125 C 13.636719 -117.605469 18.035156 -113.207031 23.460938 -113.207031 C 28.886719 -113.207031 33.289062 -117.605469 33.289062 -123.03125 C 33.289062 -128.457031 28.886719 -132.859375 23.460938 -132.859375 C 18.035156 -132.859375 13.636719 -128.457031 13.636719 -123.03125 Z M 13.636719 -123.03125 "/></g></g></g><g fill="#882741" fill-opacity="1"><g transform="translate(196.956868, 118.506786)"><g><path d="M 17.816406 -13.390625 C 19.734375 -14.53125 20.988281 -16.894531 20.988281 -19.21875 C 20.988281 -22.980469 17.925781 -25.820312 13.722656 -25.820312 L 3.503906 -25.820312 L 3.503906 0 L 13.832031 0 C 18.296875 0 21.652344 -3.097656 21.652344 -7.082031 C 21.652344 -9.921875 20.214844 -12.355469 17.816406 -13.390625 Z M 17.667969 -18.773438 C 17.667969 -16.636719 15.972656 -14.902344 13.648438 -14.902344 L 6.714844 -14.902344 L 6.714844 -22.648438 L 13.648438 -22.648438 C 15.898438 -22.648438 17.667969 -20.953125 17.667969 -18.773438 Z M 13.796875 -3.171875 L 6.714844 -3.171875 L 6.714844 -11.730469 L 13.832031 -11.730469 C 16.378906 -11.730469 18.332031 -9.886719 18.332031 -7.449219 C 18.332031 -4.980469 16.378906 -3.171875 13.796875 -3.171875 Z M 13.796875 -3.171875 "/></g></g></g><g fill="#882741" fill-opacity="1"><g transform="translate(227.013433, 118.506786)"><g><path d="M 18.554688 0 L 22.207031 0 L 16.007812 -10.476562 C 19.402344 -11.433594 21.726562 -14.273438 21.726562 -17.925781 C 21.726562 -22.5 18.148438 -25.820312 13.316406 -25.820312 L 3.503906 -25.820312 L 3.503906 0 L 6.75 0 L 6.75 -10.070312 L 12.613281 -10.070312 Z M 6.75 -22.722656 L 13.132812 -22.722656 C 16.304688 -22.722656 18.40625 -20.691406 18.40625 -17.925781 C 18.40625 -15.160156 16.304688 -13.167969 13.132812 -13.167969 L 6.75 -13.167969 Z M 6.75 -22.722656 "/></g></g></g><g fill="#882741" fill-opacity="1"><g transform="translate(257.03312, 118.506786)"><g><path d="M 21.542969 0 L 25.046875 0 L 14.199219 -25.820312 L 11.175781 -25.820312 L 0.628906 0 L 4.058594 0 L 6.566406 -6.160156 L 18.996094 -6.160156 Z M 12.726562 -21.355469 L 17.777344 -9.148438 L 7.78125 -9.148438 Z M 12.726562 -21.355469 "/></g></g></g><g fill="#882741" fill-opacity="1"><g transform="translate(289.007244, 118.506786)"><g><path d="M 6.75 -3.097656 L 6.75 -11.765625 L 17.152344 -11.765625 L 17.152344 -14.753906 L 6.75 -14.753906 L 6.75 -22.722656 L 18.109375 -22.722656 L 18.109375 -25.820312 L 3.503906 -25.820312 L 3.503906 0 L 18.515625 0 L 18.515625 -3.097656 Z M 6.75 -3.097656 "/></g></g></g><g fill="#882741" fill-opacity="1"><g transform="translate(196.956868, 158.68576)"><g><path d="M 12.097656 -25.820312 L 3.503906 -25.820312 L 3.503906 0 L 12.097656 0 C 19.695312 0 25.191406 -5.421875 25.191406 -12.910156 C 25.191406 -20.359375 19.695312 -25.785156 12.097656 -25.785156 Z M 12.023438 -3.023438 L 6.75 -3.023438 L 6.75 -22.757812 L 12.023438 -22.757812 C 17.816406 -22.757812 21.910156 -18.589844 21.910156 -12.910156 C 21.910156 -7.191406 17.816406 -3.023438 12.023438 -3.023438 Z M 12.023438 -3.023438 "/></g></g></g><g fill="#882741" fill-opacity="1"><g transform="translate(230.258533, 158.68576)"><g><path d="M 6.75 -3.097656 L 6.75 -11.765625 L 17.152344 -11.765625 L 17.152344 -14.753906 L 6.75 -14.753906 L 6.75 -22.722656 L 18.109375 -22.722656 L 18.109375 -25.820312 L 3.503906 -25.820312 L 3.503906 0 L 18.515625 0 L 18.515625 -3.097656 Z M 6.75 -3.097656 "/></g></g></g><g fill="#882741" fill-opacity="1"><g transform="translate(256.9225, 158.68576)"><g><path d="M 11.214844 0.332031 C 16.339844 0.332031 20.324219 -2.433594 20.324219 -7.304688 C 20.324219 -12.6875 15.75 -13.757812 11.691406 -14.753906 C 8.375 -15.527344 5.386719 -16.265625 5.386719 -19.070312 C 5.386719 -21.542969 7.746094 -23.015625 10.882812 -23.015625 C 14.015625 -23.015625 16.378906 -21.355469 16.378906 -18.480469 L 19.585938 -18.480469 C 19.585938 -23.164062 16.304688 -26.117188 10.957031 -26.117188 C 5.605469 -26.117188 2.175781 -23.421875 2.175781 -18.960938 C 2.175781 -13.796875 6.566406 -12.726562 10.550781 -11.804688 C 13.90625 -10.992188 16.96875 -10.292969 16.96875 -7.265625 C 16.96875 -4.535156 14.421875 -2.839844 11.175781 -2.839844 C 7.597656 -2.839844 4.980469 -4.722656 4.980469 -7.929688 L 1.660156 -7.929688 C 1.660156 -2.839844 5.53125 0.332031 11.214844 0.332031 Z M 11.214844 0.332031 "/></g></g></g><g fill="#882741" fill-opacity="1"><g transform="translate(285.209013, 158.68576)"><g><path d="M 3.503906 0 L 6.75 0 L 6.75 -25.820312 L 3.503906 -25.820312 Z M 3.503906 0 "/></g></g></g><g fill="#882741" fill-opacity="1"><g transform="translate(301.768903, 158.68576)"><g><path d="M 13.941406 -12.800781 L 13.941406 -9.738281 L 24.234375 -9.738281 C 23.3125 -5.53125 19.585938 -2.730469 14.863281 -2.730469 C 9.035156 -2.730469 5.054688 -6.898438 5.054688 -12.875 C 5.054688 -18.8125 9.148438 -23.015625 14.863281 -23.015625 C 19.21875 -23.015625 22.90625 -20.546875 24.011719 -16.78125 L 27.371094 -16.78125 C 26.226562 -22.316406 20.988281 -26.1875 14.792969 -26.1875 C 7.265625 -26.1875 1.769531 -20.546875 1.769531 -12.875 C 1.769531 -5.199219 7.265625 0.441406 14.863281 0.441406 C 22.316406 0.441406 27.628906 -5.015625 27.773438 -12.800781 Z M 13.941406 -12.800781 "/></g></g></g><g fill="#882741" fill-opacity="1"><g transform="translate(337.467523, 158.68576)"><g><path d="M 20.914062 -25.820312 L 20.914062 -5.902344 L 6.453125 -25.820312 L 3.503906 -25.820312 L 3.503906 0 L 6.675781 0 L 6.675781 -20.140625 L 21.355469 0 L 24.085938 0 L 24.085938 -25.820312 Z M 20.914062 -25.820312 "/></g></g></g><g clip-path="url(#be8b5be031)"><g clip-path="url(#c307f948b5)"><path fill="#882741" d="M 154.597656 29.84375 L 174.148438 29.84375 L 174.148438 49.394531 L 154.597656 49.394531 Z M 154.597656 29.84375 " fill-opacity="1" fill-rule="nonzero"/></g></g></svg>